<svg xmlns="http://www.w3.org/2000/svg" xmlns:xlink="http://www.w3.org/1999/xlink" width="500" zoomAndPan="magnify" viewBox="0 0 375 374.999991" height="500" preserveAspectRatio="xMidYMid meet" version="1.0"><defs><clipPath id="a8c11cec85"><path d="M 168 325 L 261.59375 325 L 261.59375 359.113281 L 168 359.113281 Z M 168 325 " clip-rule="nonzero"/></clipPath><clipPath id="ef5b8a20ca"><path d="M 108 325 L 184.605469 325 L 184.605469 359.113281 L 108 359.113281 Z M 108 325 " clip-rule="nonzero"/></clipPath><clipPath id="0043b8af4e"><path d="M 311.605469 229 L 374.953125 229 L 374.953125 259 L 311.605469 259 Z M 311.605469 229 " clip-rule="nonzero"/></clipPath></defs><path fill="#422916" d="M 230.097656 63.09375 C 226.410156 60.71875 224.175781 56.371094 222.398438 52.355469 C 224.242188 54.726562 226.28125 56.964844 228.582031 58.941406 C 233.78125 63.355469 240.492188 65.660156 245.492188 70.335938 C 251.085938 75.539062 255.828125 83.042969 255.429688 90.882812 C 255.300781 94.308594 254.640625 97.796875 254.445312 101.222656 C 252.929688 96.28125 252.46875 90.15625 250.695312 84.363281 C 248.191406 75.867188 236.148438 66.976562 230.097656 63.09375 Z M 119.285156 107.148438 C 117.375 109.386719 109.414062 115.972656 104.082031 125.917969 C 105.597656 119.398438 109.148438 113.40625 113.492188 108.398438 C 117.902344 103.328125 121.453125 98.65625 124.21875 92.59375 C 123.164062 98.257812 122.308594 103.59375 119.285156 107.148438 Z M 257.535156 107.148438 C 256.8125 106.292969 256.21875 105.371094 255.761719 104.316406 C 255.496094 98.984375 257.007812 93.648438 256.8125 88.3125 C 256.550781 81.992188 252.667969 76.527344 248.785156 71.847656 C 244.441406 66.714844 238.320312 64.210938 232.859375 60.523438 C 227.398438 56.898438 223.386719 51.761719 219.699219 46.429688 C 219.566406 46.164062 219.4375 45.902344 219.304688 45.703125 L 218.449219 44.519531 C 218.054688 43.925781 217.660156 43.335938 217.265625 42.742188 C 217.199219 42.609375 217.066406 42.542969 216.9375 42.476562 C 187.257812 14.75 165.542969 43.859375 165.542969 43.859375 C 165.542969 43.859375 160.671875 41.882812 157.644531 45.703125 C 154.621094 49.523438 152.84375 59.273438 146.789062 63.15625 C 140.734375 67.042969 128.691406 75.933594 126.125 84.363281 C 125.929688 84.957031 125.796875 85.613281 125.601562 86.207031 C 125.207031 87.128906 124.742188 88.117188 124.351562 89.105469 C 122.574219 93.253906 120.863281 97.46875 118.164062 101.089844 C 115.664062 104.449219 112.570312 107.28125 110.070312 110.640625 C 105.988281 116.105469 102.699219 123.085938 102.175781 129.9375 C 102.175781 130 102.175781 130.066406 102.175781 130.066406 C 96.644531 143.4375 97.042969 161.679688 120.203125 182.425781 L 256.679688 182.425781 C 300.964844 142.644531 262.011719 112.351562 257.535156 107.148438 " fill-opacity="1" fill-rule="nonzero"/><path fill="#fbd2b8" d="M 346.964844 238.335938 C 345.253906 238.402344 341.171875 234.914062 341.960938 233.992188 C 342.554688 233.265625 348.214844 232.210938 350.847656 231.488281 C 351.042969 233.59375 352.425781 237.285156 352.425781 237.285156 C 352.425781 237.285156 348.675781 238.273438 346.964844 238.335938 Z M 27.621094 238.335938 C 25.90625 238.273438 22.222656 237.285156 22.222656 237.285156 C 22.222656 237.285156 23.605469 233.59375 23.800781 231.488281 C 26.367188 232.277344 32.09375 233.265625 32.6875 233.992188 C 33.34375 234.914062 29.328125 238.402344 27.621094 238.335938 Z M 372.300781 237.480469 C 374.46875 234.453125 372.824219 232.148438 371.773438 231.882812 C 370.71875 231.621094 368.613281 233.660156 368.613281 233.660156 C 364.796875 236.03125 357.6875 236.492188 357.6875 236.492188 C 356.898438 235.503906 354.726562 230.761719 354.003906 230.039062 C 353.609375 229.644531 353.019531 229.382812 352.492188 229.382812 C 352.492188 228.722656 352.425781 228.128906 352.425781 228.128906 C 352.425781 228.128906 341.765625 226.746094 338.015625 227.996094 C 334.265625 229.246094 328.605469 235.570312 324.855469 236.359375 C 321.628906 237.019531 315.179688 235.832031 313.40625 235.503906 L 313.40625 235.441406 C 294.058594 222.796875 261.550781 209.097656 261.550781 209.097656 C 261.550781 209.097656 247.929688 146.464844 244.3125 144.226562 C 240.691406 142.054688 227.070312 135.070312 227.070312 135.070312 C 201.601562 123.023438 202.128906 119.992188 200.417969 114.589844 C 198.707031 109.191406 199.695312 99.90625 199.695312 99.90625 L 174.691406 99.90625 C 174.691406 99.90625 175.675781 109.191406 173.964844 114.589844 C 172.257812 119.992188 172.847656 123.023438 147.316406 135.070312 C 147.316406 135.070312 133.761719 142.054688 130.074219 144.226562 C 126.457031 146.402344 112.835938 209.097656 112.835938 209.097656 C 112.835938 209.097656 80.328125 222.730469 60.980469 235.441406 L 60.980469 235.503906 C 58.941406 235.898438 52.824219 236.953125 49.792969 236.359375 C 46.042969 235.636719 40.382812 229.246094 36.632812 227.996094 C 32.882812 226.746094 22.222656 228.128906 22.222656 228.128906 C 22.222656 228.128906 22.15625 228.722656 22.15625 229.382812 C 21.566406 229.382812 21.039062 229.644531 20.644531 230.039062 C 19.855469 230.761719 17.75 235.503906 16.960938 236.492188 C 16.960938 236.492188 9.917969 236.03125 6.035156 233.660156 C 6.035156 233.660156 3.996094 231.6875 2.875 231.882812 C 1.824219 232.148438 0.113281 234.453125 2.347656 237.480469 C 4.519531 240.511719 5.113281 240.96875 5.113281 240.96875 C 5.113281 240.96875 4.191406 241.429688 4.457031 243.011719 C 4.71875 244.660156 10.050781 250.386719 14.128906 253.285156 C 18.210938 256.183594 25.578125 258.160156 29.65625 257.433594 C 33.671875 256.710938 54.070312 254.40625 65.457031 248.808594 C 73.285156 246.964844 105.988281 239.191406 118.757812 233.265625 C 133.296875 226.480469 135.46875 223.125 142.511719 201.917969 C 149.554688 180.710938 149.089844 178.34375 149.089844 178.34375 L 226.875 178.34375 C 226.875 178.34375 225.6875 181.566406 232.796875 202.773438 C 239.835938 223.980469 241.351562 226.480469 255.890625 233.265625 C 268.921875 239.324219 302.679688 247.292969 309.652344 248.875 C 321.035156 254.40625 341.238281 256.644531 345.253906 257.371094 C 349.332031 258.09375 356.703125 256.117188 360.785156 253.222656 C 364.863281 250.320312 370.191406 244.59375 370.457031 242.945312 C 370.71875 241.300781 369.796875 240.90625 369.796875 240.90625 C 369.796875 240.90625 370.058594 240.511719 372.300781 237.480469 " fill-opacity="1" fill-rule="nonzero"/><path fill="#f8a277" d="M 184.21875 118.246094 C 188.90625 117.632812 195.996094 106.800781 199.621094 100.734375 C 199.664062 100.210938 199.695312 99.90625 199.695312 99.90625 L 174.691406 99.90625 C 174.691406 99.90625 175.410156 106.683594 174.550781 112.027344 C 178.046875 115.6875 181.683594 118.578125 184.21875 118.246094 " fill-opacity="1" fill-rule="nonzero"/><path fill="#fbd2b8" d="M 187.390625 261.125 C 140.339844 267.644531 106.386719 242.289062 106.386719 242.289062 C 106.386719 242.289062 112.109375 243.539062 124.414062 241.957031 C 136.722656 240.3125 148.367188 229.644531 148.960938 221.742188 C 149.554688 213.769531 145.738281 190.527344 145.738281 190.527344 L 142.378906 173.007812 L 225.949219 154.894531 L 232.070312 188.085938 L 229.175781 190.527344 C 229.175781 190.527344 225.359375 213.835938 225.949219 221.742188 C 226.542969 229.710938 238.191406 240.3125 250.496094 241.957031 C 262.800781 243.605469 268.523438 242.289062 268.523438 242.289062 C 268.523438 242.289062 234.570312 267.644531 187.523438 261.125 L 187.390625 261.125 " fill-opacity="1" fill-rule="nonzero"/><path fill="#fbd2b8" d="M 210.816406 51.105469 C 210.816406 51.105469 214.371094 84.496094 205.816406 94.042969 C 197.261719 103.59375 187.785156 103.855469 187.785156 103.855469 L 187.390625 103.855469 C 187.390625 103.855469 177.914062 103.527344 169.359375 94.042969 C 160.804688 84.496094 164.359375 51.105469 164.359375 51.105469 C 164.359375 51.105469 177.386719 31.675781 210.816406 51.105469 " fill-opacity="1" fill-rule="nonzero"/><path fill="#fbd2b8" d="M 159.816406 63.421875 C 165.558594 63.421875 170.214844 68.078125 170.214844 73.824219 C 170.214844 79.570312 165.558594 84.230469 159.816406 84.230469 C 154.074219 84.230469 149.421875 79.570312 149.421875 73.824219 C 149.421875 68.078125 154.074219 63.421875 159.816406 63.421875 " fill-opacity="1" fill-rule="nonzero"/><path fill="#fbd2b8" d="M 214.765625 63.421875 C 220.507812 63.421875 225.160156 68.078125 225.160156 73.824219 C 225.160156 79.570312 220.507812 84.230469 214.765625 84.230469 C 209.019531 84.230469 204.367188 79.570312 204.367188 73.824219 C 204.367188 68.078125 209.019531 63.421875 214.765625 63.421875 " fill-opacity="1" fill-rule="nonzero"/><path fill="#422916" d="M 214.699219 84.875 C 212.9375 84.875 211.246094 84.472656 209.675781 83.683594 C 209.355469 83.527344 209.226562 83.140625 209.386719 82.824219 C 209.546875 82.507812 209.929688 82.378906 210.246094 82.539062 C 211.644531 83.234375 213.140625 83.589844 214.699219 83.589844 C 220.078125 83.589844 224.453125 79.207031 224.453125 73.824219 C 224.453125 68.441406 220.078125 64.0625 214.699219 64.0625 C 213.6875 64.0625 212.644531 64.234375 211.675781 64.554688 C 211.335938 64.667969 210.976562 64.484375 210.863281 64.148438 C 210.753906 63.8125 210.933594 63.449219 211.269531 63.339844 C 212.367188 62.972656 213.554688 62.777344 214.699219 62.777344 C 220.785156 62.777344 225.738281 67.734375 225.738281 73.824219 C 225.738281 79.917969 220.785156 84.875 214.699219 84.875 " fill-opacity="1" fill-rule="nonzero"/><path fill="#422916" d="M 159.816406 84.875 C 153.730469 84.875 148.78125 79.917969 148.78125 73.824219 C 148.78125 67.734375 153.730469 62.777344 159.816406 62.777344 C 160.960938 62.777344 162.148438 62.972656 163.246094 63.339844 C 163.582031 63.449219 163.761719 63.8125 163.648438 64.148438 C 163.539062 64.484375 163.175781 64.667969 162.839844 64.554688 C 161.871094 64.234375 160.824219 64.0625 159.816406 64.0625 C 154.4375 64.0625 150.0625 68.441406 150.0625 73.824219 C 150.0625 79.207031 154.4375 83.589844 159.816406 83.589844 C 161.375 83.589844 162.875 83.234375 164.269531 82.539062 C 164.585938 82.378906 164.972656 82.507812 165.132812 82.824219 C 165.289062 83.140625 165.160156 83.527344 164.84375 83.683594 C 163.265625 84.472656 161.578125 84.875 159.816406 84.875 " fill-opacity="1" fill-rule="nonzero"/><path fill="#422916" d="M 219.371094 71.519531 C 218.121094 70.136719 216.015625 70.46875 214.5 71.125 C 212.660156 71.914062 211.277344 73.429688 210.617188 75.339844 C 210.355469 76.128906 211.539062 76.457031 211.871094 75.667969 C 212.394531 74.351562 213.25 73.234375 214.5 72.574219 C 215.621094 71.984375 217.527344 71.324219 218.515625 72.441406 C 218.976562 73.035156 219.898438 72.113281 219.371094 71.519531 " fill-opacity="1" fill-rule="nonzero"/><path fill="#422916" d="M 163.566406 75.339844 C 162.976562 73.824219 161.859375 72.640625 160.542969 71.71875 C 159.027344 70.664062 157.582031 70.796875 155.871094 71.257812 C 155.082031 71.457031 155.410156 72.707031 156.199219 72.507812 C 157.644531 72.113281 158.765625 71.984375 160.015625 72.902344 C 161.003906 73.628906 161.859375 74.550781 162.320312 75.667969 C 162.648438 76.457031 163.898438 76.128906 163.566406 75.339844 " fill-opacity="1" fill-rule="nonzero"/><path fill="#422916" d="M 188.707031 76.789062 C 188.507812 73.496094 187.914062 70.335938 186.796875 67.238281 C 186.535156 66.515625 185.417969 66.84375 185.679688 67.566406 C 186.734375 70.46875 187.324219 73.496094 187.523438 76.59375 C 186.863281 76.457031 186.207031 76.328125 185.613281 76.789062 C 184.953125 77.25 184.691406 78.105469 184.757812 78.898438 C 184.890625 80.675781 186.074219 82.191406 187.585938 82.980469 C 188.246094 83.308594 188.839844 82.320312 188.179688 81.992188 C 187.191406 81.464844 186.46875 80.675781 186.074219 79.6875 C 185.941406 79.292969 185.679688 78.371094 186.007812 78.039062 C 186.402344 77.644531 187.0625 77.777344 187.652344 77.84375 C 187.914062 78.171875 188.507812 78.105469 188.640625 77.710938 C 188.902344 77.382812 188.902344 76.984375 188.707031 76.789062 " fill-opacity="1" fill-rule="nonzero"/><path fill="#422916" d="M 170.347656 70.796875 C 173.503906 72.179688 176.992188 71.785156 179.886719 69.875 C 180.546875 69.414062 181.203125 70.53125 180.546875 70.996094 C 177.253906 73.164062 173.308594 73.429688 169.753906 71.914062 C 168.964844 71.519531 169.625 70.46875 170.347656 70.796875 " fill-opacity="1" fill-rule="nonzero"/><path fill="#422916" d="M 203.644531 70.796875 C 200.484375 72.179688 196.996094 71.785156 194.101562 69.875 C 193.445312 69.414062 192.785156 70.53125 193.445312 70.996094 C 196.734375 73.164062 200.683594 73.429688 204.234375 71.914062 C 205.023438 71.519531 204.367188 70.46875 203.644531 70.796875 " fill-opacity="1" fill-rule="nonzero"/><path fill="#422916" d="M 196.605469 85.679688 C 196.273438 85.21875 195.878906 84.824219 195.417969 84.496094 C 194.695312 84.03125 194.101562 85.152344 194.761719 85.613281 C 194.890625 85.679688 194.957031 85.746094 195.023438 85.8125 C 192.328125 90.15625 186.929688 89.566406 182.847656 87.65625 C 182.125 87.324219 181.46875 88.378906 182.191406 88.777344 C 186.863281 90.949219 192.917969 91.476562 196.007812 86.667969 C 196.46875 86.601562 196.933594 86.140625 196.605469 85.679688 " fill-opacity="1" fill-rule="nonzero"/><path fill="#f8a277" d="M 202.527344 74.945312 C 206.234375 74.945312 209.238281 75.652344 209.238281 76.527344 C 209.238281 77.398438 206.234375 78.105469 202.527344 78.105469 C 198.820312 78.105469 195.8125 77.398438 195.8125 76.527344 C 195.8125 75.652344 198.820312 74.945312 202.527344 74.945312 " fill-opacity="1" fill-rule="nonzero"/><path fill="#f8a277" d="M 173.242188 74.945312 C 176.949219 74.945312 179.953125 75.652344 179.953125 76.527344 C 179.953125 77.398438 176.949219 78.105469 173.242188 78.105469 C 169.535156 78.105469 166.527344 77.398438 166.527344 76.527344 C 166.527344 75.652344 169.535156 74.945312 173.242188 74.945312 " fill-opacity="1" fill-rule="nonzero"/><path fill="#f0ce49" d="M 184.824219 228.128906 L 146.527344 228.128906 C 149.089844 224.441406 149.027344 220.492188 149.027344 220.492188 C 149.355469 214.101562 145.867188 191.117188 145.867188 191.117188 L 140.144531 208.503906 C 127.246094 206.660156 115.136719 198.492188 115.136719 198.492188 C 118.757812 181.304688 127.375 150.21875 127.640625 149.363281 C 127.902344 148.507812 130.007812 144.292969 130.007812 144.292969 C 131.851562 142.84375 147.25 135.136719 153.832031 131.914062 C 160.410156 128.683594 168.371094 123.285156 168.371094 123.285156 C 168.371094 123.285156 176.070312 142.449219 187.851562 149.695312 C 187.851562 149.695312 198.183594 145.214844 205.816406 123.285156 C 205.816406 123.285156 213.777344 128.683594 220.355469 131.914062 C 226.9375 135.136719 242.335938 142.84375 244.175781 144.292969 C 244.175781 144.292969 246.285156 148.507812 246.546875 149.363281 C 246.808594 150.21875 255.429688 181.304688 259.050781 198.492188 C 259.050781 198.492188 246.941406 206.59375 234.042969 208.503906 L 228.910156 191.25 C 228.910156 191.25 225.492188 214.296875 225.820312 220.753906 C 225.820312 220.753906 225.753906 224.441406 228.320312 228.128906 L 184.824219 228.128906 " fill-opacity="1" fill-rule="nonzero"/><path fill="#071f39" d="M 285.4375 240.707031 C 274.972656 242.089844 251.484375 239.390625 241.808594 238.136719 C 227.59375 233.992188 226.214844 219.566406 226.214844 219.566406 L 149.027344 219.566406 C 149.027344 219.566406 147.316406 237.148438 128.496094 239.0625 C 117.835938 240.378906 96.644531 242.617188 86.90625 241.367188 C 73.550781 239.589844 49.726562 250.585938 59.074219 275.347656 C 64.535156 289.902344 91.710938 310.976562 123.429688 328.296875 C 118.429688 328.03125 115.007812 327.96875 115.007812 327.96875 C 113.363281 346.605469 123.5625 356.550781 123.5625 356.550781 L 181.796875 354.707031 C 182.785156 354.441406 183.835938 354.246094 184.890625 353.980469 C 186.796875 354.507812 188.707031 354.96875 190.613281 355.429688 L 248.851562 357.273438 C 248.851562 357.273438 259.050781 347.328125 257.40625 328.691406 C 257.40625 328.691406 252.140625 330.800781 245.558594 331.261719 C 278.460938 313.679688 310.246094 292.339844 316.496094 275.085938 C 325.644531 249.53125 298.792969 238.929688 285.4375 240.707031 " fill-opacity="1" fill-rule="nonzero"/><path fill="#fbd2b8" d="M 191.601562 327.757812 C 191.453125 327.757812 191.300781 327.707031 191.179688 327.601562 C 159.773438 300.402344 102.359375 256.675781 101.785156 256.238281 C 101.5 256.023438 101.445312 255.617188 101.660156 255.332031 C 101.875 255.046875 102.28125 254.992188 102.5625 255.207031 C 103.140625 255.648438 160.589844 299.398438 192.023438 326.625 C 192.292969 326.859375 192.324219 327.265625 192.089844 327.535156 C 191.960938 327.683594 191.78125 327.757812 191.601562 327.757812 " fill-opacity="1" fill-rule="nonzero"/><path fill="#fbd2b8" d="M 187.125 327.757812 C 186.945312 327.757812 186.765625 327.683594 186.636719 327.535156 C 186.40625 327.265625 186.433594 326.859375 186.703125 326.625 C 218.140625 299.398438 275.585938 255.648438 276.164062 255.207031 C 276.445312 254.992188 276.851562 255.046875 277.070312 255.332031 C 277.28125 255.617188 277.226562 256.023438 276.941406 256.238281 C 276.367188 256.675781 218.953125 300.402344 187.550781 327.601562 C 187.425781 327.707031 187.277344 327.757812 187.125 327.757812 " fill-opacity="1" fill-rule="nonzero"/><path fill="#fbd2b8" d="M 248.785156 357.207031 C 248.785156 357.207031 196.339844 360.5 183.179688 353.652344 C 170.015625 346.800781 168.898438 344.761719 168.898438 344.761719 L 183.703125 320.65625 C 183.703125 320.65625 193.3125 328.296875 196.273438 330.007812 C 199.300781 331.722656 249.179688 322.570312 257.601562 325.992188 C 266.027344 329.417969 253.851562 354.179688 248.785156 357.207031 " fill-opacity="1" fill-rule="nonzero"/><path fill="#f8a277" d="M 173.175781 356.746094 C 152.910156 359.054688 120.535156 357.144531 120.535156 357.144531 C 115.46875 354.113281 103.359375 329.351562 111.71875 325.925781 C 112.964844 325.398438 115.136719 325.203125 117.96875 325.136719 L 146.855469 337.847656 L 168.898438 344.695312 L 184.890625 353.851562 C 184.890625 353.914062 174.953125 356.550781 173.175781 356.746094 " fill-opacity="1" fill-rule="nonzero"/><path fill="#422916" d="M 172.058594 48.074219 C 173.636719 49.328125 177.78125 52.421875 184.230469 55.582031 C 179.296875 55.253906 174.820312 52.617188 172.058594 48.074219 Z M 214.765625 57.558594 L 213.578125 52.289062 L 206.472656 41.753906 C 206.472656 41.753906 178.507812 39.25 178.179688 39.25 C 177.847656 39.25 163.636719 46.230469 163.636719 46.230469 L 157.582031 55.1875 L 160.410156 63.484375 C 160.410156 63.484375 166.664062 62.894531 169.359375 55.320312 C 170.414062 52.226562 170.941406 50.382812 171.203125 49.261719 C 174.691406 54.660156 180.613281 57.492188 186.929688 56.898438 C 193.445312 59.800781 201.867188 62.496094 211.933594 63.484375 L 214.765625 57.558594 " fill-opacity="1" fill-rule="nonzero"/><path fill="#422916" d="M 112.636719 209.425781 L 112.644531 209.425781 Z M 22.882812 237.238281 C 24.324219 237.609375 26.769531 238.171875 27.691406 238.089844 C 28.933594 237.976562 31.554688 235.804688 31.800781 234.878906 C 31.726562 234.605469 30.558594 234.101562 29.296875 233.902344 L 24.136719 232.628906 C 23.894531 234.324219 23.25 236.242188 22.882812 237.238281 Z M 27.511719 239.386719 C 25.824219 239.386719 22.277344 238.417969 21.855469 238.300781 C 21.675781 238.25 21.527344 238.128906 21.449219 237.964844 C 21.367188 237.796875 21.359375 237.609375 21.425781 237.4375 C 21.441406 237.40625 22.636719 234.417969 22.894531 232.167969 C 21.199219 230.964844 21.167969 229.167969 21.40625 228.34375 C 21.480469 228.09375 21.695312 227.910156 21.953125 227.882812 C 21.984375 227.878906 25.007812 227.546875 31.402344 227.21875 C 37.097656 226.925781 40.554688 229.734375 43.886719 232.445312 C 44.53125 232.96875 45.175781 233.496094 45.84375 234 C 49.339844 236.667969 52.351562 236.320312 56.164062 235.875 C 56.621094 235.824219 57.085938 235.769531 57.558594 235.71875 C 61.730469 235.28125 67.4375 230.890625 67.496094 230.84375 C 67.511719 230.832031 67.53125 230.816406 67.550781 230.804688 C 80.339844 222.894531 108.828125 210.382812 112.078125 208.964844 C 112.664062 206.359375 116.648438 188.605469 118.519531 180.371094 C 120.257812 172.507812 127.3125 146.425781 129.40625 144.179688 C 131.277344 142.175781 157.472656 129.300781 160.457031 127.839844 C 160.511719 127.816406 166.078125 125.058594 170.875 120.195312 C 175.535156 115.46875 173.738281 99.484375 173.722656 99.320312 C 173.675781 98.964844 173.933594 98.648438 174.285156 98.605469 C 174.636719 98.558594 174.960938 98.816406 175 99.171875 C 175.082031 99.855469 176.886719 115.9375 171.792969 121.101562 C 166.835938 126.128906 161.257812 128.886719 161.023438 129 C 149.402344 134.699219 131.640625 143.675781 130.351562 145.0625 C 128.78125 146.742188 122.039062 170.421875 119.78125 180.652344 C 117.765625 189.511719 113.3125 209.367188 113.265625 209.566406 C 113.21875 209.769531 113.082031 209.933594 112.894531 210.019531 C 112.582031 210.152344 81.699219 223.578125 68.257812 231.886719 C 67.757812 232.273438 62.121094 236.539062 57.695312 237.003906 C 57.222656 237.050781 56.761719 237.105469 56.3125 237.15625 C 52.539062 237.597656 48.972656 238.015625 45.058594 235.03125 C 44.382812 234.511719 43.726562 233.980469 43.074219 233.449219 C 39.785156 230.773438 36.683594 228.246094 31.46875 228.507812 C 26.574219 228.761719 23.671875 229.011719 22.589844 229.117188 C 22.570312 229.636719 22.71875 230.539062 23.789062 231.210938 L 29.550781 232.636719 C 29.9375 232.695312 32.183594 233.097656 32.867188 234.144531 C 33.082031 234.472656 33.144531 234.839844 33.046875 235.207031 C 32.648438 236.726562 29.515625 239.222656 27.808594 239.375 C 27.71875 239.382812 27.621094 239.386719 27.511719 239.386719 " fill-opacity="1" fill-rule="nonzero"/><path fill="#422916" d="M 20.699219 230.261719 C 20.699219 230.265625 20.699219 230.265625 20.699219 230.265625 C 20.699219 230.265625 20.699219 230.265625 20.699219 230.261719 Z M 20.699219 230.265625 C 20.699219 230.269531 20.703125 230.269531 20.703125 230.269531 C 20.703125 230.269531 20.699219 230.269531 20.699219 230.265625 Z M 20.703125 230.269531 Z M 20.703125 230.269531 C 20.703125 230.273438 20.703125 230.273438 20.703125 230.273438 C 20.703125 230.273438 20.703125 230.273438 20.703125 230.269531 Z M 20.703125 230.273438 C 20.703125 230.277344 20.703125 230.277344 20.703125 230.277344 C 20.703125 230.277344 20.703125 230.277344 20.703125 230.273438 Z M 27.570312 258.5625 C 24.894531 258.5625 21.921875 257.945312 17.9375 256.597656 C 11.375 254.382812 4.683594 245.617188 4.402344 245.246094 C 3.15625 243.601562 3.445312 242.1875 3.96875 241.359375 C 1.492188 238.957031 0.15625 236.300781 0.378906 234.175781 C 0.476562 233.238281 0.898438 232.503906 1.566406 232.117188 C 3.070312 231.238281 3.484375 231.460938 5.011719 232.558594 C 5.460938 232.878906 6.019531 233.277344 6.785156 233.777344 C 9.363281 235.5 14.871094 236.035156 16.355469 236.148438 C 16.652344 235.671875 17.308594 234.550781 18.496094 232.304688 C 19.9375 229.632812 20.597656 229.246094 21.09375 229.21875 C 21.375 229.207031 21.628906 229.332031 21.773438 229.546875 C 21.96875 229.84375 21.890625 230.246094 21.59375 230.445312 C 21.472656 230.527344 21.332031 230.566406 21.191406 230.550781 C 21.007812 230.714844 20.527344 231.253906 19.632812 232.914062 C 17.859375 236.261719 17.25 237.152344 17.226562 237.1875 C 17.097656 237.375 16.886719 237.480469 16.660156 237.464844 C 16.363281 237.449219 9.339844 237.035156 6.070312 234.859375 C 5.289062 234.347656 4.71875 233.9375 4.261719 233.609375 C 3.054688 232.742188 3.054688 232.742188 2.214844 233.230469 C 1.914062 233.40625 1.71875 233.789062 1.664062 234.3125 C 1.515625 235.734375 2.386719 238.191406 5.285156 240.820312 C 5.421875 240.945312 5.5 241.121094 5.496094 241.308594 C 5.496094 241.488281 5.414062 241.664062 5.277344 241.785156 C 5.167969 241.886719 4.207031 242.851562 5.429688 244.464844 C 5.703125 244.828125 12.160156 253.285156 18.351562 255.375 C 24.492188 257.449219 27.4375 257.441406 29.703125 257.125 C 30.332031 257.019531 31.359375 256.859375 32.585938 256.667969 C 36.769531 256.007812 43.085938 255.019531 45.042969 254.566406 L 45.726562 254.410156 C 49.15625 253.625 59.59375 251.238281 62.453125 249.6875 C 62.765625 249.515625 63.15625 249.636719 63.324219 249.949219 C 63.496094 250.261719 63.378906 250.652344 63.066406 250.824219 C 60.367188 252.289062 52.042969 254.292969 46.011719 255.671875 L 45.332031 255.828125 C 43.332031 256.289062 36.984375 257.285156 32.785156 257.945312 C 31.5625 258.136719 30.542969 258.296875 29.894531 258.402344 C 29.132812 258.511719 28.363281 258.5625 27.570312 258.5625 " fill-opacity="1" fill-rule="nonzero"/><path fill="#422916" d="M 145.496094 194.265625 L 139.242188 212.921875 C 139.175781 213.191406 137.222656 220.507812 130.140625 227.660156 C 125.171875 232.628906 109.683594 237.898438 100.441406 240.722656 C 106.34375 240.644531 112.234375 240.523438 115.933594 240.195312 C 125.804688 239.332031 132.605469 237.984375 137.996094 235.828125 C 143.691406 233.546875 147.644531 224.957031 148.257812 220.792969 C 148.765625 217.3125 146.449219 200.789062 145.496094 194.265625 Z M 168.769531 345.867188 C 168.714844 345.867188 168.664062 345.863281 168.609375 345.851562 C 119.519531 333.617188 85.054688 304.847656 72.082031 294.023438 C 56.453125 280.972656 53.050781 263.757812 58.792969 254.652344 C 64.339844 245.851562 73.894531 241.898438 80.386719 241.183594 C 82.941406 240.902344 88.761719 240.84375 95.503906 240.773438 C 95.566406 240.773438 95.628906 240.773438 95.691406 240.773438 C 103.113281 238.632812 123.625 232.351562 129.222656 226.75 C 136.042969 219.859375 137.988281 212.628906 138.003906 212.558594 L 145.125 191.308594 C 145.21875 191.023438 145.496094 190.84375 145.789062 190.867188 C 146.089844 190.894531 146.332031 191.121094 146.375 191.414062 C 146.53125 192.433594 150.199219 216.457031 149.535156 220.980469 C 148.921875 225.148438 144.925781 234.445312 138.476562 237.027344 C 132.964844 239.230469 126.050781 240.605469 116.046875 241.484375 C 111.339844 241.898438 103.183594 241.988281 95.898438 242.0625 C 94.453125 242.476562 93.523438 242.726562 93.324219 242.777344 C 92.980469 242.875 92.628906 242.667969 92.535156 242.324219 C 92.515625 242.25 92.511719 242.171875 92.515625 242.101562 C 87.265625 242.160156 82.628906 242.238281 80.53125 242.46875 C 74.320312 243.152344 65.1875 246.929688 59.882812 255.34375 C 57.085938 259.777344 56.703125 266.199219 58.832031 272.953125 C 61.128906 280.238281 66.128906 287.367188 72.910156 293.027344 C 85.78125 303.769531 119.902344 332.253906 168.464844 344.480469 L 183.023438 320.78125 C 183.210938 320.476562 183.609375 320.378906 183.910156 320.566406 C 184.214844 320.753906 184.308594 321.152344 184.125 321.457031 L 169.316406 345.5625 C 169.199219 345.753906 168.988281 345.867188 168.769531 345.867188 " fill-opacity="1" fill-rule="nonzero"/><g clip-path="url(#a8c11cec85)"><path fill="#422916" d="M 223.636719 359.113281 C 205.359375 359.113281 193.839844 357.554688 187.792969 356.394531 C 181.214844 355.195312 168.90625 346.128906 168.382812 345.742188 C 168.097656 345.53125 168.035156 345.125 168.25 344.839844 C 168.460938 344.550781 168.867188 344.492188 169.152344 344.703125 C 169.277344 344.796875 181.738281 353.980469 188.03125 355.125 C 196.40625 356.730469 215.371094 359.105469 248.441406 356.972656 C 249.46875 355.960938 255.175781 350.03125 257.96875 340.757812 C 259.667969 335.136719 260.480469 330.933594 258.945312 328.683594 C 258.007812 327.3125 256.121094 326.554688 253.007812 326.308594 C 252.65625 326.277344 252.390625 325.96875 252.417969 325.613281 C 252.445312 325.253906 252.761719 324.996094 253.113281 325.019531 C 256.648438 325.300781 258.835938 326.234375 260.007812 327.957031 C 261.839844 330.640625 261.058594 334.988281 259.207031 341.128906 C 256.035156 351.648438 249.4375 357.820312 249.15625 358.078125 C 249.046875 358.179688 248.90625 358.238281 248.761719 358.246094 C 239.261719 358.863281 230.914062 359.113281 223.636719 359.113281 " fill-opacity="1" fill-rule="nonzero"/></g><g clip-path="url(#ef5b8a20ca)"><path fill="#422916" d="M 150.75 359.023438 C 138.972656 359.023438 120.535156 358.324219 120.3125 358.316406 C 120.171875 358.308594 120.035156 358.257812 119.925781 358.167969 C 116.503906 355.351562 112.621094 347.746094 112.457031 347.425781 C 107.832031 337.617188 106.859375 331.011719 109.472656 327.207031 C 111.074219 324.875 117.167969 324.996094 117.855469 325.019531 C 118.210938 325.027344 118.492188 325.328125 118.480469 325.683594 C 118.46875 326.039062 118.164062 326.300781 117.816406 326.308594 C 115.480469 326.242188 111.445312 326.617188 110.535156 327.941406 C 108.207031 331.332031 109.214844 337.519531 113.617188 346.855469 C 113.644531 346.914062 117.402344 354.269531 120.582031 357.035156 C 123.21875 357.132812 148.394531 358.050781 157.222656 357.617188 L 159.261719 357.519531 C 168.300781 357.09375 178.542969 356.609375 183.171875 353.761719 C 183.472656 353.574219 183.871094 353.667969 184.058594 353.972656 C 184.246094 354.277344 184.148438 354.675781 183.847656 354.863281 C 178.9375 357.886719 168.515625 358.375 159.320312 358.8125 L 157.285156 358.90625 C 155.601562 358.988281 153.335938 359.023438 150.75 359.023438 " fill-opacity="1" fill-rule="nonzero"/></g><path fill="#422916" d="M 140.011719 209.609375 C 139.988281 209.609375 139.964844 209.609375 139.941406 209.605469 C 128.144531 208.351562 115.195312 199.851562 114.648438 199.492188 C 114.351562 199.296875 114.273438 198.894531 114.46875 198.597656 C 114.664062 198.300781 115.066406 198.21875 115.363281 198.414062 C 115.492188 198.503906 128.597656 207.101562 140.078125 208.324219 C 140.433594 208.359375 140.691406 208.675781 140.652344 209.03125 C 140.617188 209.363281 140.339844 209.609375 140.011719 209.609375 " fill-opacity="1" fill-rule="nonzero"/><path fill="#422916" d="M 350.511719 232.5625 L 345.40625 233.828125 C 344.054688 234.042969 342.921875 234.539062 342.847656 234.8125 C 343.09375 235.738281 345.710938 237.910156 346.957031 238.023438 C 347.871094 238.097656 350.324219 237.542969 351.765625 237.171875 C 351.398438 236.175781 350.753906 234.257812 350.511719 232.5625 Z M 347.132812 239.320312 C 347.027344 239.320312 346.929688 239.316406 346.839844 239.308594 C 345.132812 239.152344 342 236.660156 341.601562 235.144531 C 341.503906 234.777344 341.566406 234.40625 341.78125 234.078125 C 342.464844 233.03125 344.710938 232.628906 345.152344 232.5625 L 350.859375 231.148438 C 351.929688 230.472656 352.078125 229.574219 352.058594 229.050781 C 350.972656 228.945312 348.074219 228.695312 343.179688 228.445312 C 338.070312 228.191406 334.988281 230.707031 331.722656 233.375 C 331.054688 233.925781 330.363281 234.492188 329.652344 235.03125 C 325.746094 238.011719 322.179688 237.597656 318.402344 237.15625 C 317.949219 237.105469 317.488281 237.050781 317.023438 237.003906 C 312.59375 236.539062 306.957031 232.269531 306.457031 231.886719 C 293.011719 223.578125 262.132812 210.152344 261.820312 210.019531 C 261.628906 209.933594 261.492188 209.769531 261.449219 209.566406 C 261.402344 209.367188 256.949219 189.511719 254.933594 180.65625 C 252.675781 170.421875 245.933594 146.742188 244.363281 145.0625 C 243.070312 143.675781 225.3125 134.699219 213.6875 129 C 213.457031 128.886719 207.878906 126.128906 202.921875 121.101562 C 197.828125 115.9375 199.632812 99.855469 199.710938 99.171875 C 199.753906 98.816406 200.070312 98.558594 200.429688 98.605469 C 200.78125 98.648438 201.035156 98.964844 200.992188 99.320312 C 200.976562 99.484375 199.179688 115.46875 203.839844 120.195312 C 208.632812 125.058594 214.203125 127.816406 214.257812 127.839844 C 217.238281 129.300781 243.4375 142.175781 245.308594 144.179688 C 247.402344 146.425781 254.460938 172.507812 256.191406 180.375 C 258.066406 188.605469 262.050781 206.359375 262.632812 208.964844 C 265.886719 210.382812 294.375 222.894531 307.160156 230.804688 C 307.183594 230.816406 307.199219 230.832031 307.21875 230.84375 C 307.277344 230.890625 312.984375 235.28125 317.15625 235.71875 C 317.628906 235.769531 318.09375 235.824219 318.550781 235.875 C 322.367188 236.320312 325.375 236.667969 328.871094 234 C 329.5625 233.472656 330.242188 232.917969 330.90625 232.375 C 334.214844 229.667969 337.640625 226.875 343.246094 227.15625 C 349.640625 227.484375 352.664062 227.816406 352.695312 227.816406 C 352.953125 227.84375 353.167969 228.027344 353.242188 228.277344 C 353.480469 229.101562 353.449219 230.902344 351.753906 232.101562 C 352.011719 234.351562 353.207031 237.339844 353.222656 237.367188 C 353.289062 237.542969 353.28125 237.730469 353.199219 237.894531 C 353.121094 238.0625 352.972656 238.1875 352.792969 238.234375 C 352.371094 238.351562 348.820312 239.320312 347.132812 239.320312 " fill-opacity="1" fill-rule="nonzero"/><g clip-path="url(#0043b8af4e)"><path fill="#422916" d="M 354.605469 230.265625 Z M 354.605469 230.265625 C 354.605469 230.269531 354.605469 230.269531 354.605469 230.269531 C 354.605469 230.269531 354.605469 230.269531 354.605469 230.265625 Z M 354.605469 230.269531 Z M 354.601562 230.269531 C 354.601562 230.273438 354.601562 230.273438 354.601562 230.273438 C 354.601562 230.273438 354.601562 230.273438 354.601562 230.269531 Z M 354.601562 230.273438 C 354.601562 230.277344 354.601562 230.277344 354.601562 230.277344 C 354.601562 230.277344 354.601562 230.277344 354.601562 230.273438 Z M 347.734375 258.5625 C 346.945312 258.5625 346.183594 258.511719 345.425781 258.40625 C 344.765625 258.296875 343.742188 258.136719 342.519531 257.945312 C 338.320312 257.285156 331.972656 256.289062 329.972656 255.828125 L 329.296875 255.671875 C 323.269531 254.292969 314.941406 252.289062 312.242188 250.824219 C 311.925781 250.652344 311.8125 250.261719 311.980469 249.949219 C 312.152344 249.636719 312.542969 249.515625 312.855469 249.6875 C 315.714844 251.238281 326.152344 253.625 329.582031 254.410156 L 330.265625 254.566406 C 332.21875 255.019531 338.539062 256.011719 342.722656 256.667969 C 343.945312 256.859375 344.96875 257.019531 345.621094 257.125 C 347.871094 257.441406 350.8125 257.449219 356.957031 255.375 C 359.511719 254.511719 363.828125 251.917969 369.886719 244.449219 C 371.097656 242.847656 370.136719 241.886719 370.023438 241.78125 C 369.890625 241.65625 369.8125 241.484375 369.8125 241.300781 C 369.8125 241.121094 369.886719 240.945312 370.023438 240.820312 C 372.917969 238.191406 373.792969 235.734375 373.644531 234.3125 C 373.589844 233.789062 373.394531 233.40625 373.089844 233.230469 C 372.253906 232.742188 372.253906 232.742188 371.042969 233.609375 C 370.585938 233.9375 370.015625 234.347656 369.230469 234.859375 C 365.96875 237.035156 358.941406 237.449219 358.648438 237.464844 C 358.410156 237.480469 358.207031 237.375 358.078125 237.1875 C 358.054688 237.152344 357.445312 236.261719 355.671875 232.910156 C 354.777344 231.253906 354.296875 230.714844 354.117188 230.550781 C 353.972656 230.5625 353.835938 230.527344 353.710938 230.445312 C 353.414062 230.246094 353.335938 229.84375 353.535156 229.546875 C 353.675781 229.332031 353.9375 229.207031 354.210938 229.21875 C 354.710938 229.246094 355.371094 229.632812 356.808594 232.300781 C 358 234.550781 358.65625 235.667969 358.949219 236.148438 C 360.433594 236.035156 365.945312 235.5 368.519531 233.78125 C 369.285156 233.277344 369.84375 232.878906 370.292969 232.558594 C 371.820312 231.460938 372.238281 231.238281 373.742188 232.117188 C 374.410156 232.503906 374.828125 233.238281 374.929688 234.175781 C 375.148438 236.300781 373.816406 238.957031 371.335938 241.359375 C 371.859375 242.1875 372.148438 243.601562 370.902344 245.246094 C 364.632812 252.972656 360.085938 255.683594 357.371094 256.597656 C 353.378906 257.945312 350.40625 258.5625 347.734375 258.5625 " fill-opacity="1" fill-rule="nonzero"/></g><path fill="#422916" d="M 229.8125 194.265625 C 228.855469 200.789062 226.539062 217.3125 227.050781 220.792969 C 227.664062 224.957031 231.617188 233.546875 237.3125 235.828125 C 242.695312 237.984375 249.5 239.332031 259.367188 240.195312 C 263.070312 240.523438 268.960938 240.644531 274.863281 240.722656 C 265.621094 237.898438 250.128906 232.628906 245.167969 227.664062 C 238.085938 220.507812 236.132812 213.191406 236.050781 212.882812 Z M 257.144531 325.914062 C 256.914062 325.914062 256.691406 325.792969 256.574219 325.578125 C 256.40625 325.265625 256.519531 324.871094 256.832031 324.703125 C 278.957031 312.605469 294.789062 299.382812 302.394531 293.027344 C 309.179688 287.367188 314.175781 280.238281 316.472656 272.953125 C 318.605469 266.199219 318.222656 259.777344 315.425781 255.34375 C 310.039062 246.800781 300.9375 243.070312 294.785156 242.46875 C 292.683594 242.238281 288.042969 242.160156 282.789062 242.101562 C 282.796875 242.171875 282.789062 242.25 282.769531 242.324219 C 282.675781 242.667969 282.324219 242.875 281.980469 242.777344 C 281.78125 242.726562 280.851562 242.476562 279.40625 242.0625 C 272.125 241.988281 263.96875 241.898438 259.253906 241.484375 C 249.257812 240.605469 242.34375 239.230469 236.832031 237.027344 C 230.378906 234.445312 226.386719 225.148438 225.773438 220.980469 C 225.105469 216.457031 228.773438 192.433594 228.933594 191.414062 C 228.976562 191.121094 229.21875 190.894531 229.511719 190.867188 C 229.808594 190.84375 230.085938 191.023438 230.179688 191.308594 L 237.289062 212.511719 C 237.320312 212.628906 239.261719 219.859375 246.085938 226.753906 C 251.679688 232.351562 272.191406 238.632812 279.613281 240.773438 C 279.679688 240.773438 279.738281 240.773438 279.804688 240.773438 C 286.542969 240.84375 292.363281 240.902344 294.917969 241.183594 C 301.355469 241.8125 310.878906 245.71875 316.515625 254.652344 C 322.257812 263.757812 318.855469 280.972656 303.222656 294.023438 C 295.582031 300.402344 279.6875 313.679688 257.453125 325.832031 C 257.355469 325.890625 257.25 325.914062 257.144531 325.914062 " fill-opacity="1" fill-rule="nonzero"/><path fill="#422916" d="M 235.292969 209.609375 C 234.96875 209.609375 234.6875 209.363281 234.652344 209.03125 C 234.617188 208.675781 234.871094 208.359375 235.226562 208.324219 C 246.710938 207.101562 259.8125 198.503906 259.945312 198.414062 C 260.238281 198.21875 260.640625 198.300781 260.839844 198.597656 C 261.035156 198.894531 260.953125 199.296875 260.65625 199.492188 C 260.113281 199.851562 247.164062 208.351562 235.363281 209.605469 C 235.339844 209.609375 235.316406 209.609375 235.292969 209.609375 " fill-opacity="1" fill-rule="nonzero"/><path fill="#422916" d="M 187.914062 150.339844 C 187.808594 150.339844 187.703125 150.3125 187.605469 150.261719 C 177.859375 144.949219 168.257812 124.425781 167.851562 123.558594 C 167.703125 123.234375 167.84375 122.847656 168.167969 122.699219 C 168.492188 122.546875 168.875 122.691406 169.023438 123.011719 C 169.121094 123.21875 178.652344 143.59375 187.9375 148.964844 C 189.621094 148.078125 198.804688 142.480469 205.269531 123.082031 C 205.378906 122.742188 205.742188 122.558594 206.085938 122.671875 C 206.421875 122.785156 206.605469 123.152344 206.492188 123.488281 C 199.183594 145.445312 188.613281 150.101562 188.164062 150.289062 C 188.085938 150.320312 188 150.339844 187.914062 150.339844 " fill-opacity="1" fill-rule="nonzero"/><path fill="#422916" d="M 138.367188 149.035156 C 137.972656 148.308594 136.851562 148.96875 137.246094 149.695312 C 143.234375 160.164062 146.195312 171.886719 145.933594 184.003906 C 145.933594 184.859375 147.183594 184.859375 147.25 184.003906 C 147.511719 171.6875 144.421875 159.703125 138.367188 149.035156 " fill-opacity="1" fill-rule="nonzero"/><path fill="#422916" d="M 162.910156 208.4375 C 157.449219 207.976562 152.710938 204.878906 149.945312 200.140625 C 149.554688 199.417969 148.433594 200.074219 148.828125 200.796875 C 151.855469 205.933594 156.988281 209.160156 162.910156 209.6875 C 163.703125 209.820312 163.703125 208.503906 162.910156 208.4375 " fill-opacity="1" fill-rule="nonzero"/><path fill="#422916" d="M 225.359375 201.722656 C 223.515625 204.15625 220.949219 205.867188 218.054688 206.726562 C 217.265625 206.988281 217.59375 208.238281 218.382812 207.976562 C 221.671875 206.988281 224.371094 205.078125 226.476562 202.378906 C 227.003906 201.722656 225.886719 201.0625 225.359375 201.722656 " fill-opacity="1" fill-rule="nonzero"/><path fill="#422916" d="M 231.015625 150.351562 C 228.453125 161.285156 225.949219 172.480469 227.265625 183.742188 C 226.214844 181.699219 225.492188 179.460938 225.09375 177.089844 C 224.964844 176.300781 223.714844 176.628906 223.84375 177.417969 C 224.371094 180.777344 225.621094 183.941406 227.53125 186.707031 C 227.59375 186.769531 227.664062 186.835938 227.664062 186.835938 C 227.792969 187.625 229.042969 187.296875 228.910156 186.507812 C 226.738281 174.453125 229.4375 162.402344 232.203125 150.613281 C 232.464844 149.890625 231.214844 149.558594 231.015625 150.351562 " fill-opacity="1" fill-rule="nonzero"/><path fill="#422916" d="M 208.316406 124.800781 C 207.132812 128.554688 205.488281 132.109375 203.378906 135.402344 C 202.917969 136.125 204.039062 136.785156 204.5 136.058594 C 206.667969 132.636719 208.382812 129.011719 209.566406 125.128906 C 209.828125 124.339844 208.578125 124.007812 208.316406 124.800781 " fill-opacity="1" fill-rule="nonzero"/><path fill="#422916" d="M 121.652344 198.230469 C 119.875 197.375 118.429688 196.253906 117.113281 194.804688 C 116.585938 194.210938 115.664062 195.070312 116.191406 195.726562 C 117.503906 197.242188 119.152344 198.492188 120.992188 199.347656 C 121.78125 199.746094 122.441406 198.625 121.652344 198.230469 " fill-opacity="1" fill-rule="nonzero"/><path fill="#422916" d="M 227.203125 218.183594 L 149.945312 218.183594 C 149.554688 218.183594 149.355469 218.515625 149.355469 218.84375 C 148.5 218.84375 148.5 220.160156 149.355469 220.160156 C 149.75 220.160156 149.945312 219.832031 149.945312 219.503906 L 227.203125 219.503906 C 228.054688 219.4375 228.054688 218.183594 227.203125 218.183594 " fill-opacity="1" fill-rule="nonzero"/><path fill="#fbd2b8" d="M 156.855469 252.625 C 150.605469 248.414062 146.394531 242.023438 144.882812 234.582031 C 144.75 233.792969 143.496094 234.121094 143.632812 234.914062 C 145.210938 242.683594 149.617188 249.269531 156.199219 253.679688 C 156.921875 254.207031 157.582031 253.089844 156.855469 252.625 " fill-opacity="1" fill-rule="nonzero"/><path fill="#fbd2b8" d="M 143.167969 246.039062 C 140.933594 244.988281 139.15625 243.34375 138.039062 241.101562 C 137.640625 240.378906 136.523438 241.039062 136.917969 241.761719 C 138.167969 244.132812 140.144531 246.039062 142.511719 247.164062 C 143.300781 247.492188 143.960938 246.371094 143.167969 246.039062 " fill-opacity="1" fill-rule="nonzero"/><path fill="#fbd2b8" d="M 237.269531 236.359375 C 233.519531 243.871094 227.53125 249.796875 219.964844 253.351562 C 219.238281 253.679688 219.898438 254.800781 220.621094 254.472656 C 228.382812 250.785156 234.570312 244.722656 238.453125 237.019531 C 238.71875 236.296875 237.597656 235.636719 237.269531 236.359375 " fill-opacity="1" fill-rule="nonzero"/><path fill="#fbd2b8" d="M 239.835938 243.472656 C 239.441406 244.132812 238.980469 244.789062 238.585938 245.449219 C 238.125 246.175781 239.242188 246.765625 239.703125 246.109375 C 240.097656 245.449219 240.558594 244.789062 240.953125 244.132812 C 241.351562 243.472656 240.230469 242.816406 239.835938 243.472656 " fill-opacity="1" fill-rule="nonzero"/><path fill="#fbd2b8" d="M 112.242188 263.230469 C 106.253906 261.253906 98.421875 258.554688 92.105469 260.070312 C 91.316406 260.265625 91.648438 261.515625 92.4375 261.320312 C 98.421875 259.871094 106.1875 262.570312 111.914062 264.480469 C 112.703125 264.746094 113.03125 263.492188 112.242188 263.230469 " fill-opacity="1" fill-rule="nonzero"/><path fill="#422916" d="M 42.820312 245.25 C 35.976562 245.777344 29.394531 247.6875 23.34375 250.914062 C 23.210938 250.785156 23.078125 250.652344 22.816406 250.652344 C 16.894531 250.585938 13.144531 244.789062 6.957031 247.164062 C 6.167969 247.425781 6.496094 248.675781 7.285156 248.414062 C 12.878906 246.238281 17.15625 251.835938 22.75 251.96875 C 22.882812 252.234375 23.273438 252.429688 23.605469 252.234375 C 29.59375 249.003906 35.976562 247.164062 42.753906 246.636719 C 43.609375 246.503906 43.609375 245.1875 42.820312 245.25 " fill-opacity="1" fill-rule="nonzero"/><path fill="#422916" d="M 23.734375 245.316406 C 21.566406 245.582031 19.457031 245.316406 17.484375 244.527344 C 17.417969 244.394531 17.289062 244.261719 17.089844 244.199219 C 16.824219 244.132812 16.5625 244.066406 16.300781 244 C 16.234375 244 16.234375 243.933594 16.167969 243.933594 C 16.035156 243.871094 15.90625 243.871094 15.839844 243.871094 C 13.472656 243.210938 11.300781 242.289062 8.996094 241.300781 C 7.417969 240.578125 5.902344 240.179688 4.257812 240.773438 C 3.46875 241.039062 3.800781 242.289062 4.589844 242.023438 C 6.824219 241.234375 8.929688 242.75 10.902344 243.605469 C 12.550781 244.261719 14.195312 244.859375 15.90625 245.316406 C 18.472656 246.566406 21.238281 247.027344 24.066406 246.636719 C 24.855469 246.4375 24.527344 245.1875 23.734375 245.316406 " fill-opacity="1" fill-rule="nonzero"/><path fill="#422916" d="M 25.90625 239.984375 C 25.710938 240.96875 25.644531 241.957031 25.777344 242.945312 C 25.84375 243.734375 27.160156 243.804688 27.09375 242.945312 C 27.027344 242.089844 27.027344 241.167969 27.222656 240.3125 C 27.289062 239.457031 26.039062 239.125 25.90625 239.984375 " fill-opacity="1" fill-rule="nonzero"/><path fill="#422916" d="M 22.945312 238.796875 C 18.078125 239.125 13.339844 236.886719 8.867188 235.042969 C 8.078125 234.714844 7.746094 235.96875 8.535156 236.296875 C 13.074219 238.203125 17.878906 240.441406 22.945312 240.113281 C 23.734375 240.050781 23.734375 238.730469 22.945312 238.796875 " fill-opacity="1" fill-rule="nonzero"/><path fill="#422916" d="M 330.90625 245.84375 C 337.753906 246.371094 344.332031 248.28125 350.386719 251.507812 C 350.515625 251.375 350.648438 251.246094 350.914062 251.246094 C 356.835938 251.179688 360.585938 245.382812 366.769531 247.753906 C 367.558594 248.015625 367.230469 249.269531 366.441406 249.003906 C 360.847656 246.832031 356.570312 252.429688 350.976562 252.5625 C 350.847656 252.824219 350.449219 253.023438 350.121094 252.824219 C 344.132812 249.597656 337.753906 247.753906 330.972656 247.226562 C 330.117188 247.097656 330.117188 245.777344 330.90625 245.84375 " fill-opacity="1" fill-rule="nonzero"/><path fill="#422916" d="M 349.988281 245.910156 C 352.164062 246.175781 354.265625 245.910156 356.242188 245.121094 C 356.308594 244.988281 356.4375 244.859375 356.636719 244.789062 C 356.898438 244.722656 357.164062 244.660156 357.425781 244.59375 C 357.492188 244.59375 357.492188 244.527344 357.558594 244.527344 C 357.6875 244.460938 357.824219 244.460938 357.886719 244.460938 C 360.257812 243.804688 362.429688 242.882812 364.730469 241.894531 C 366.308594 241.167969 367.824219 240.773438 369.46875 241.367188 C 370.257812 241.628906 369.929688 242.882812 369.140625 242.617188 C 366.902344 241.828125 364.796875 243.34375 362.820312 244.199219 C 361.175781 244.859375 359.53125 245.449219 357.824219 245.910156 C 355.253906 247.164062 352.492188 247.625 349.660156 247.226562 C 348.871094 247.027344 349.199219 245.777344 349.988281 245.910156 " fill-opacity="1" fill-rule="nonzero"/><path fill="#422916" d="M 347.816406 240.511719 C 348.015625 241.496094 348.082031 242.484375 347.953125 243.472656 C 347.886719 244.261719 346.570312 244.332031 346.636719 243.472656 C 346.699219 242.617188 346.699219 241.695312 346.503906 240.839844 C 346.4375 240.050781 347.6875 239.71875 347.816406 240.511719 " fill-opacity="1" fill-rule="nonzero"/><path fill="#422916" d="M 350.777344 239.390625 C 355.648438 239.71875 360.386719 237.480469 364.863281 235.636719 C 365.652344 235.308594 365.980469 236.558594 365.191406 236.886719 C 360.648438 238.796875 355.847656 241.039062 350.777344 240.707031 C 349.988281 240.578125 349.988281 239.324219 350.777344 239.390625 " fill-opacity="1" fill-rule="nonzero"/><path fill="#422916" d="M 260.039062 328.230469 C 259.839844 327.441406 258.652344 327.769531 258.789062 328.558594 C 259.117188 330.273438 259.707031 334.160156 257.933594 335.277344 C 257.207031 335.742188 257.863281 336.859375 258.589844 336.398438 C 260.957031 334.882812 260.496094 330.667969 260.039062 328.230469 " fill-opacity="1" fill-rule="nonzero"/><path fill="#422916" d="M 256.15625 335.34375 C 254.046875 336.070312 251.878906 334.816406 249.707031 334.617188 C 249.640625 334.554688 249.507812 334.488281 249.378906 334.421875 C 247.730469 334.027344 246.019531 334.027344 244.375 334.355469 C 243.585938 334.554688 243.914062 335.742188 244.703125 335.605469 C 245.890625 335.34375 247.074219 335.34375 248.324219 335.542969 C 248.390625 335.742188 248.589844 335.871094 248.851562 335.871094 C 251.484375 335.804688 253.851562 337.519531 256.484375 336.59375 C 257.273438 336.332031 256.945312 335.082031 256.15625 335.34375 " fill-opacity="1" fill-rule="nonzero"/><path fill="#422916" d="M 258.722656 339.097656 C 257.339844 340.613281 254.246094 340.214844 252.402344 340.285156 C 252.339844 340.285156 252.339844 340.285156 252.273438 340.285156 C 252.207031 340.214844 252.140625 340.214844 252.074219 340.214844 C 249.769531 339.558594 247.46875 339.425781 245.101562 339.953125 C 244.3125 340.152344 244.640625 341.402344 245.429688 341.203125 C 247.535156 340.742188 249.640625 340.8125 251.679688 341.46875 C 251.8125 341.535156 251.878906 341.46875 252.007812 341.46875 C 252.074219 341.535156 252.207031 341.535156 252.339844 341.535156 C 254.640625 341.46875 257.863281 341.863281 259.578125 339.953125 C 260.234375 339.425781 259.3125 338.507812 258.722656 339.097656 " fill-opacity="1" fill-rule="nonzero"/><path fill="#422916" d="M 256.484375 345.683594 C 252.273438 347.789062 248.523438 344.761719 244.246094 345.484375 C 243.457031 345.617188 243.785156 346.871094 244.574219 346.738281 C 247.136719 346.277344 249.507812 347.527344 252.074219 347.789062 C 253.917969 347.988281 255.5625 347.59375 257.144531 346.738281 C 257.863281 346.410156 257.207031 345.289062 256.484375 345.683594 " fill-opacity="1" fill-rule="nonzero"/><path fill="#422916" d="M 252.46875 353.125 C 249.179688 353.386719 246.546875 350.558594 243.257812 350.558594 C 242.402344 350.558594 242.402344 351.875 243.257812 351.875 C 246.546875 351.808594 249.113281 354.707031 252.46875 354.441406 C 253.257812 354.375 253.257812 353.058594 252.46875 353.125 " fill-opacity="1" fill-rule="nonzero"/><path fill="#422916" d="M 125.46875 334.421875 C 123.890625 334.355469 122.308594 334.488281 120.730469 334.6875 C 120.601562 334.554688 120.402344 334.488281 120.136719 334.488281 C 116.785156 335.144531 113.492188 334.949219 110.203125 334.09375 C 109.414062 333.894531 109.085938 335.144531 109.875 335.34375 C 112.898438 336.199219 115.996094 336.398438 119.085938 336.003906 C 119.21875 336.132812 119.414062 336.265625 119.675781 336.199219 C 121.585938 335.804688 123.5625 335.671875 125.535156 335.742188 C 126.257812 335.742188 126.257812 334.488281 125.46875 334.421875 " fill-opacity="1" fill-rule="nonzero"/><path fill="#422916" d="M 124.878906 339.691406 C 122.375 340.285156 119.875 340.941406 117.375 341.796875 C 115.203125 341.730469 113.164062 341.339844 111.191406 340.546875 C 110.402344 340.285156 110.070312 341.46875 110.859375 341.796875 C 112.835938 342.523438 114.875 342.917969 116.980469 343.050781 C 117.113281 343.117188 117.308594 343.179688 117.503906 343.117188 C 117.574219 343.117188 117.640625 343.050781 117.703125 343.050781 C 117.769531 343.050781 117.835938 343.050781 117.835938 342.984375 C 120.269531 342.191406 122.707031 341.46875 125.207031 340.941406 C 125.996094 340.742188 125.667969 339.492188 124.878906 339.691406 " fill-opacity="1" fill-rule="nonzero"/><path fill="#422916" d="M 126.390625 346.277344 C 124.21875 347.398438 121.917969 347.925781 119.480469 348.054688 C 119.347656 347.988281 119.21875 347.925781 119.019531 347.925781 C 117.175781 348.121094 115.398438 347.925781 113.625 347.328125 C 112.835938 347.066406 112.507812 348.316406 113.296875 348.582031 C 115.007812 349.105469 116.714844 349.371094 118.492188 349.242188 C 118.558594 349.304688 118.691406 349.371094 118.820312 349.371094 C 121.71875 349.371094 124.480469 348.714844 127.046875 347.398438 C 127.773438 347.066406 127.113281 345.949219 126.390625 346.277344 " fill-opacity="1" fill-rule="nonzero"/><path fill="#422916" d="M 128.691406 351.019531 C 127.046875 351.082031 125.46875 351.480469 124.023438 352.203125 C 121.851562 352.664062 119.746094 352.796875 117.503906 352.535156 C 116.652344 352.398438 116.714844 353.71875 117.503906 353.851562 C 119.546875 354.113281 121.519531 354.046875 123.496094 353.652344 C 123.691406 353.71875 123.890625 353.785156 124.085938 353.652344 C 124.21875 353.585938 124.351562 353.523438 124.480469 353.453125 C 124.613281 353.453125 124.679688 353.386719 124.8125 353.386719 C 125.007812 353.324219 125.074219 353.257812 125.140625 353.125 C 126.257812 352.664062 127.441406 352.398438 128.691406 352.335938 C 129.484375 352.269531 129.484375 350.953125 128.691406 351.019531 " fill-opacity="1" fill-rule="nonzero"/><path fill="#fbd2b8" d="M 261.285156 255.988281 C 259.773438 262.902344 255.957031 268.960938 250.296875 273.175781 C 249.640625 273.636719 250.296875 274.824219 250.957031 274.296875 C 256.878906 269.816406 260.957031 263.558594 262.539062 256.316406 C 262.667969 255.460938 261.421875 255.128906 261.285156 255.988281 " fill-opacity="1" fill-rule="nonzero"/><path fill="#fbd2b8" d="M 177.914062 226.941406 C 168.570312 227.273438 159.226562 227.140625 149.945312 226.546875 C 149.089844 226.480469 149.089844 227.800781 149.945312 227.867188 C 159.289062 228.457031 168.570312 228.589844 177.914062 228.257812 C 178.769531 228.195312 178.769531 226.878906 177.914062 226.941406 " fill-opacity="1" fill-rule="nonzero"/><path fill="#422916" d="M 180.285156 60.652344 C 180.285156 60.191406 180.285156 59.730469 180.21875 59.335938 C 180.21875 59.203125 180.21875 59.074219 180.152344 58.941406 C 180.152344 58.875 180.085938 58.875 180.085938 58.8125 C 179.953125 58.480469 179.757812 58.285156 179.296875 58.085938 C 179.296875 58.085938 179.230469 58.085938 179.230469 58.019531 C 177.914062 57.359375 175.941406 57.953125 174.691406 58.285156 C 172.453125 58.941406 170.609375 60.257812 169.296875 62.167969 C 168.703125 62.828125 168.175781 63.617188 167.648438 64.605469 C 167.320312 65.261719 168.109375 65.855469 168.636719 65.460938 C 168.769531 65.460938 168.898438 65.398438 169.03125 65.261719 C 169.953125 64.34375 170.742188 63.421875 171.730469 62.761719 C 173.175781 61.96875 175.019531 61.578125 176.535156 61.578125 C 177.453125 61.839844 178.441406 61.90625 179.429688 61.773438 C 179.824219 61.707031 180.019531 61.445312 180.019531 61.117188 C 180.21875 61.050781 180.347656 60.917969 180.285156 60.652344 " fill-opacity="1" fill-rule="nonzero"/><path fill="#422916" d="M 193.179688 60.652344 C 193.179688 60.191406 193.179688 59.730469 193.246094 59.335938 C 193.246094 59.203125 193.246094 59.074219 193.3125 58.941406 C 193.3125 58.875 193.378906 58.875 193.378906 58.8125 C 193.507812 58.480469 193.707031 58.285156 194.167969 58.085938 C 194.167969 58.085938 194.234375 58.085938 194.234375 58.019531 C 195.550781 57.359375 197.523438 57.953125 198.773438 58.285156 C 201.011719 58.941406 202.855469 60.257812 204.171875 62.167969 C 204.761719 62.828125 205.289062 63.617188 205.816406 64.605469 C 206.144531 65.261719 205.351562 65.855469 204.828125 65.460938 C 204.695312 65.460938 204.5625 65.398438 204.433594 65.261719 C 203.511719 64.34375 202.722656 63.421875 201.734375 62.761719 C 200.285156 61.96875 198.445312 61.578125 196.933594 61.578125 C 196.007812 61.839844 195.023438 61.90625 194.035156 61.773438 C 193.640625 61.707031 193.445312 61.445312 193.445312 61.117188 C 193.246094 61.050781 193.117188 60.917969 193.179688 60.652344 " fill-opacity="1" fill-rule="nonzero"/><path fill="#422916" d="M 164.582031 51.472656 C 164.332031 54.035156 161.480469 84.859375 169.445312 93.746094 C 177.695312 102.894531 186.925781 103.34375 187.019531 103.347656 L 187.390625 103.347656 C 187.464844 103.34375 196.691406 102.957031 204.941406 93.746094 C 212.769531 85.011719 210.148438 55.082031 209.816406 51.625 C 200.425781 46.207031 186.839844 40.660156 174.878906 44.5625 C 168.386719 46.679688 165.144531 50.714844 164.582031 51.472656 Z M 186.996094 104.628906 C 186.574219 104.617188 177.128906 104.179688 168.488281 94.605469 C 159.839844 84.953125 163.179688 52.542969 163.328125 51.167969 C 163.335938 51.066406 163.371094 50.964844 163.433594 50.878906 C 163.570312 50.671875 166.914062 45.808594 174.480469 43.339844 C 187.011719 39.253906 201.117188 45.078125 210.742188 50.683594 C 210.921875 50.785156 211.035156 50.964844 211.058594 51.167969 C 211.207031 52.542969 214.542969 84.953125 205.898438 94.601562 C 197.257812 104.246094 187.804688 104.617188 187.410156 104.628906 L 186.996094 104.628906 " fill-opacity="1" fill-rule="nonzero"/></svg>