<svg xmlns="http://www.w3.org/2000/svg" xmlns:xlink="http://www.w3.org/1999/xlink" width="500" zoomAndPan="magnify" viewBox="0 0 375 374.999991" height="500" preserveAspectRatio="xMidYMid meet" version="1.0"><defs><filter x="0%" y="0%" width="100%" height="100%" id="6f92814ddc"><feColorMatrix values="0 0 0 0 1 0 0 0 0 1 0 0 0 0 1 0 0 0 1 0" color-interpolation-filters="sRGB"/></filter><clipPath id="ce8f53ee86"><path d="M 180 208 L 360.816406 208 L 360.816406 375 L 180 375 Z M 180 208 " clip-rule="nonzero"/></clipPath><mask id="852bcf20c1"><g filter="url(#6f92814ddc)"><rect x="-37.5" width="450" fill="#000000" y="-37.499999" height="449.999989" fill-opacity="0.91"/></g></mask><clipPath id="0351a29c7d"><rect x="0" width="181" y="0" height="167"/></clipPath><mask id="62bfe203da"><g filter="url(#6f92814ddc)"><rect x="-37.5" width="450" fill="#000000" y="-37.499999" height="449.999989" fill-opacity="0.91"/></g></mask><clipPath id="09c613e135"><rect x="0" width="95" y="0" height="146"/></clipPath><mask id="74239194f5"><g filter="url(#6f92814ddc)"><rect x="-37.5" width="450" fill="#000000" y="-37.499999" height="449.999989" fill-opacity="0.91"/></g></mask><clipPath id="69edda372c"><rect x="0" width="99" y="0" height="163"/></clipPath><mask id="2291d0e1f2"><g filter="url(#6f92814ddc)"><rect x="-37.5" width="450" fill="#000000" y="-37.499999" height="449.999989" fill-opacity="0.91"/></g></mask><clipPath id="80a6136e69"><rect x="0" width="93" y="0" height="109"/></clipPath><clipPath id="2317a2636e"><path d="M 250 114 L 360.816406 114 L 360.816406 193 L 250 193 Z M 250 114 " clip-rule="nonzero"/></clipPath><mask id="ade332e673"><g filter="url(#6f92814ddc)"><rect x="-37.5" width="450" fill="#000000" y="-37.499999" height="449.999989" fill-opacity="0.91"/></g></mask><clipPath id="905e38f07b"><path d="M 1 1 L 110.816406 1 L 110.816406 78.71875 L 1 78.71875 Z M 1 1 " clip-rule="nonzero"/></clipPath><clipPath id="5ff44ea06d"><rect x="0" width="111" y="0" height="79"/></clipPath><mask id="1ef8ef152a"><g filter="url(#6f92814ddc)"><rect x="-37.5" width="450" fill="#000000" y="-37.499999" height="449.999989" fill-opacity="0.91"/></g></mask><clipPath id="44345d65d2"><rect x="0" width="110" y="0" height="160"/></clipPath><mask id="598c3b5e42"><g filter="url(#6f92814ddc)"><rect x="-37.5" width="450" fill="#000000" y="-37.499999" height="449.999989" fill-opacity="0.91"/></g></mask><clipPath id="ef7da9e641"><path d="M 2 2 L 133 2 L 133 146.640625 L 2 146.640625 Z M 2 2 " clip-rule="nonzero"/></clipPath><clipPath id="754c12d5ff"><rect x="0" width="134" y="0" height="147"/></clipPath><mask id="b36fd06084"><g filter="url(#6f92814ddc)"><rect x="-37.5" width="450" fill="#000000" y="-37.499999" height="449.999989" fill-opacity="0.91"/></g></mask><clipPath id="91fe5a3009"><rect x="0" width="81" y="0" height="89"/></clipPath><mask id="0caab92b86"><g filter="url(#6f92814ddc)"><rect x="-37.5" width="450" fill="#000000" y="-37.499999" height="449.999989" fill-opacity="0.91"/></g></mask><clipPath id="17f2734896"><rect x="0" width="50" y="0" height="62"/></clipPath><mask id="38780c4c4a"><g filter="url(#6f92814ddc)"><rect x="-37.5" width="450" fill="#000000" y="-37.499999" height="449.999989" fill-opacity="0.91"/></g></mask><clipPath id="23e2f0264b"><rect x="0" width="33" y="0" height="43"/></clipPath><clipPath id="fb776582cd"><path d="M 14.316406 218 L 106 218 L 106 370 L 14.316406 370 Z M 14.316406 218 " clip-rule="nonzero"/></clipPath><mask id="30de7c8640"><g filter="url(#6f92814ddc)"><rect x="-37.5" width="450" fill="#000000" y="-37.499999" height="449.999989" fill-opacity="0.91"/></g></mask><clipPath id="ec9642fc59"><path d="M 0.316406 2 L 91.359375 2 L 91.359375 151 L 0.316406 151 Z M 0.316406 2 " clip-rule="nonzero"/></clipPath><clipPath id="2aad4d0dcd"><rect x="0" width="92" y="0" height="152"/></clipPath></defs><g clip-path="url(#ce8f53ee86)"><g mask="url(#852bcf20c1)"><g transform="matrix(1, 0, 0, 1, 180, 208)"><g clip-path="url(#0351a29c7d)"><path fill="#ffde44" d="M 122.367188 53.226562 C 123.300781 54.070312 124.226562 54.925781 125.132812 55.792969 C 126.042969 56.664062 126.9375 57.546875 127.820312 58.441406 C 128.699219 59.335938 129.566406 60.242188 130.414062 61.160156 C 131.265625 62.074219 132.097656 63.003906 132.914062 63.941406 C 133.730469 64.878906 134.53125 65.828125 135.3125 66.785156 C 136.09375 67.742188 136.859375 68.707031 137.601562 69.679688 C 138.347656 70.652344 139.074219 71.632812 139.78125 72.617188 C 140.488281 73.605469 141.171875 74.597656 141.839844 75.597656 C 142.507812 76.59375 143.152344 77.597656 143.777344 78.605469 C 144.402344 79.613281 145.003906 80.621094 145.585938 81.636719 C 146.164062 82.648438 146.722656 83.664062 147.261719 84.683594 C 147.796875 85.703125 148.3125 86.722656 148.800781 87.742188 C 149.292969 88.761719 149.757812 89.78125 150.199219 90.800781 C 150.644531 91.816406 151.0625 92.835938 151.457031 93.851562 C 151.851562 94.867188 152.222656 95.878906 152.570312 96.890625 C 152.914062 97.902344 153.234375 98.90625 153.53125 99.910156 C 153.824219 100.910156 154.09375 101.910156 154.339844 102.902344 C 154.585938 103.894531 154.804688 104.878906 154.996094 105.855469 C 155.191406 106.835938 155.355469 107.808594 155.5 108.769531 C 155.640625 109.734375 155.753906 110.6875 155.84375 111.636719 C 155.933594 112.582031 155.996094 113.519531 156.035156 114.445312 C 156.070312 115.371094 156.082031 116.285156 156.066406 117.191406 C 156.050781 118.09375 156.007812 118.988281 155.9375 119.867188 C 155.871094 120.746094 155.777344 121.613281 155.65625 122.46875 C 155.535156 123.320312 155.390625 124.160156 155.214844 124.984375 C 155.042969 125.8125 154.847656 126.621094 154.621094 127.417969 C 154.398438 128.210938 154.148438 128.988281 153.875 129.753906 C 153.597656 130.515625 153.296875 131.261719 152.972656 131.988281 C 152.648438 132.71875 152.296875 133.429688 151.921875 134.121094 C 151.546875 134.8125 151.148438 135.488281 150.722656 136.140625 C 150.300781 136.796875 149.851562 137.433594 149.378906 138.046875 C 148.90625 138.664062 148.414062 139.257812 147.894531 139.835938 C 147.378906 140.410156 146.835938 140.964844 146.273438 141.496094 C 145.710938 142.03125 145.125 142.542969 144.515625 143.03125 C 143.910156 143.519531 143.28125 143.988281 142.632812 144.433594 C 141.980469 144.878906 141.3125 145.300781 140.621094 145.703125 C 139.929688 146.101562 139.21875 146.480469 138.492188 146.832031 C 137.761719 147.183594 137.011719 147.515625 136.246094 147.820312 C 135.476562 148.125 134.691406 148.410156 133.886719 148.667969 C 133.085938 148.925781 132.265625 149.15625 131.429688 149.367188 C 130.59375 149.574219 129.738281 149.761719 128.871094 149.921875 C 128.003906 150.082031 127.121094 150.214844 126.222656 150.324219 C 125.324219 150.4375 124.410156 150.519531 123.484375 150.582031 C 122.5625 150.640625 121.621094 150.675781 120.671875 150.6875 C 119.722656 150.699219 118.757812 150.683594 117.785156 150.644531 C 116.8125 150.605469 115.828125 150.539062 114.832031 150.449219 C 113.839844 150.359375 112.835938 150.246094 111.824219 150.105469 C 110.8125 149.964844 109.792969 149.800781 108.761719 149.613281 C 107.734375 149.425781 106.699219 149.210938 105.660156 148.972656 C 104.617188 148.734375 103.570312 148.472656 102.519531 148.1875 C 101.46875 147.902344 100.410156 147.589844 99.351562 147.257812 C 98.289062 146.925781 97.226562 146.566406 96.160156 146.1875 C 95.09375 145.804688 94.027344 145.402344 92.960938 144.976562 C 91.890625 144.546875 90.820312 144.097656 89.75 143.628906 C 88.683594 143.15625 87.613281 142.664062 86.546875 142.148438 C 85.476562 141.632812 84.414062 141.09375 83.351562 140.535156 C 82.289062 139.980469 81.226562 139.402344 80.171875 138.800781 C 79.117188 138.203125 78.066406 137.582031 77.019531 136.945312 C 75.972656 136.304688 74.933594 135.648438 73.902344 134.96875 C 72.867188 134.292969 71.839844 133.597656 70.820312 132.882812 C 69.800781 132.167969 68.792969 131.4375 67.789062 130.691406 C 66.789062 129.941406 65.796875 129.175781 64.816406 128.394531 C 63.832031 127.613281 62.863281 126.816406 61.902344 126 C 60.941406 125.1875 59.992188 124.359375 59.058594 123.519531 C 58.121094 122.675781 57.199219 121.820312 56.289062 120.953125 C 55.378906 120.082031 54.484375 119.199219 53.605469 118.304688 C 52.722656 117.410156 51.859375 116.503906 51.007812 115.585938 C 50.160156 114.671875 49.328125 113.742188 48.507812 112.804688 C 47.691406 111.867188 46.894531 110.917969 46.113281 109.960938 C 45.328125 109.003906 44.566406 108.039062 43.820312 107.066406 C 43.074219 106.09375 42.351562 105.113281 41.644531 104.128906 C 40.9375 103.140625 40.25 102.148438 39.582031 101.148438 C 38.917969 100.152344 38.273438 99.148438 37.648438 98.140625 C 37.023438 97.136719 36.421875 96.125 35.839844 95.109375 C 35.257812 94.097656 34.699219 93.082031 34.164062 92.0625 C 33.625 91.042969 33.113281 90.027344 32.621094 89.003906 C 32.132812 87.984375 31.664062 86.964844 31.222656 85.945312 C 30.78125 84.929688 30.359375 83.910156 29.964844 82.894531 C 29.570312 81.878906 29.199219 80.867188 28.855469 79.855469 C 28.511719 78.84375 28.1875 77.839844 27.894531 76.835938 C 27.597656 75.835938 27.328125 74.835938 27.082031 73.84375 C 26.839844 72.855469 26.621094 71.867188 26.425781 70.890625 C 26.234375 69.910156 26.066406 68.9375 25.925781 67.976562 C 25.785156 67.011719 25.667969 66.058594 25.578125 65.109375 C 25.488281 64.164062 25.425781 63.226562 25.390625 62.300781 C 25.355469 61.375 25.34375 60.460938 25.359375 59.554688 C 25.375 58.652344 25.417969 57.757812 25.484375 56.878906 C 25.554688 56 25.648438 55.132812 25.769531 54.277344 C 25.886719 53.425781 26.035156 52.585938 26.207031 51.761719 C 26.378906 50.933594 26.578125 50.125 26.800781 49.332031 C 27.027344 48.535156 27.277344 47.757812 27.550781 46.992188 C 27.824219 46.230469 28.125 45.484375 28.453125 44.757812 C 28.777344 44.027344 29.128906 43.320312 29.503906 42.625 C 29.878906 41.933594 30.277344 41.257812 30.699219 40.605469 C 31.125 39.949219 31.574219 39.3125 32.042969 38.699219 C 32.515625 38.082031 33.011719 37.488281 33.527344 36.910156 C 34.046875 36.335938 34.585938 35.78125 35.152344 35.25 C 35.714844 34.714844 36.300781 34.203125 36.90625 33.714844 C 37.515625 33.226562 38.140625 32.757812 38.792969 32.3125 C 39.441406 31.867188 40.113281 31.445312 40.800781 31.042969 C 41.492188 30.644531 42.203125 30.269531 42.933594 29.914062 C 43.664062 29.5625 44.414062 29.230469 45.179688 28.925781 C 45.945312 28.621094 46.730469 28.335938 47.535156 28.078125 C 48.339844 27.820312 49.15625 27.589844 49.996094 27.378906 C 50.832031 27.171875 51.683594 26.984375 52.550781 26.824219 C 53.421875 26.667969 54.304688 26.53125 55.203125 26.421875 C 56.101562 26.3125 57.011719 26.226562 57.9375 26.164062 C 58.863281 26.105469 59.800781 26.070312 60.75 26.058594 C 61.703125 26.046875 62.664062 26.0625 63.636719 26.101562 C 64.613281 26.140625 65.597656 26.207031 66.589844 26.296875 C 67.585938 26.386719 68.585938 26.5 69.597656 26.640625 C 70.613281 26.78125 71.632812 26.945312 72.660156 27.132812 C 73.6875 27.320312 74.722656 27.535156 75.765625 27.773438 C 76.804688 28.011719 77.851562 28.273438 78.90625 28.558594 C 79.957031 28.84375 81.011719 29.15625 82.074219 29.488281 C 83.132812 29.820312 84.195312 30.179688 85.261719 30.558594 C 86.328125 30.941406 87.394531 31.34375 88.464844 31.769531 C 89.535156 32.199219 90.601562 32.648438 91.671875 33.117188 C 92.742188 33.589844 93.8125 34.082031 94.878906 34.597656 C 95.945312 35.113281 97.011719 35.652344 98.074219 36.210938 C 99.136719 36.765625 100.195312 37.347656 101.25 37.945312 C 102.308594 38.542969 103.359375 39.164062 104.402344 39.800781 C 105.449219 40.441406 106.488281 41.097656 107.523438 41.777344 C 108.558594 42.453125 109.582031 43.148438 110.601562 43.863281 C 111.621094 44.578125 112.632812 45.308594 113.632812 46.058594 C 114.636719 46.804688 115.625 47.570312 116.609375 48.351562 C 117.589844 49.132812 118.5625 49.929688 119.523438 50.746094 C 120.484375 51.558594 121.429688 52.386719 122.367188 53.226562 Z M 122.367188 53.226562 " fill-opacity="1" fill-rule="nonzero"/><path fill="#e99d2c" d="M 120.253906 151.25 C 116.613281 151.25 112.714844 150.992188 108.816406 150.210938 C 91.917969 147.09375 74.242188 137.738281 58.90625 123.96875 C 27.195312 95.386719 15.757812 56.152344 33.433594 36.402344 C 42.011719 26.789062 56.046875 23.410156 73.203125 26.53125 C 90.097656 29.648438 107.773438 39.003906 123.113281 52.773438 C 138.449219 66.542969 149.625 83.175781 154.5625 99.804688 C 159.503906 116.433594 157.421875 130.722656 148.84375 140.335938 C 141.828125 147.351562 131.949219 151.25 120.253906 151.25 Z M 61.246094 26.53125 C 49.808594 26.53125 40.449219 30.167969 33.953125 37.183594 C 16.796875 56.410156 28.234375 94.605469 59.425781 122.929688 C 74.503906 136.699219 92.179688 145.792969 108.816406 148.910156 C 125.449219 152.03125 138.96875 148.652344 147.285156 139.296875 C 155.605469 130.203125 157.421875 116.171875 152.746094 100.0625 C 148.066406 83.695312 136.886719 67.324219 121.8125 53.8125 C 106.734375 40.042969 89.058594 30.945312 72.421875 27.828125 C 68.523438 27.050781 64.886719 26.53125 61.246094 26.53125 Z M 61.246094 26.53125 " fill-opacity="1" fill-rule="nonzero"/></g></g></g></g><g mask="url(#62bfe203da)"><g transform="matrix(1, 0, 0, 1, 36, 217)"><g clip-path="url(#09c613e135)"><path fill="#ffde44" d="M 53.699219 5.046875 C 54.996094 5.167969 56.277344 5.398438 57.546875 5.738281 C 58.820312 6.078125 60.070312 6.523438 61.300781 7.078125 C 62.53125 7.628906 63.738281 8.289062 64.917969 9.050781 C 66.097656 9.8125 67.246094 10.679688 68.367188 11.644531 C 69.484375 12.609375 70.566406 13.667969 71.609375 14.828125 C 72.65625 15.984375 73.660156 17.230469 74.621094 18.570312 C 75.585938 19.910156 76.5 21.332031 77.371094 22.839844 C 78.242188 24.347656 79.0625 25.933594 79.832031 27.59375 C 80.597656 29.253906 81.316406 30.984375 81.976562 32.785156 C 82.636719 34.585938 83.242188 36.445312 83.789062 38.363281 C 84.335938 40.285156 84.824219 42.253906 85.25 44.277344 C 85.675781 46.300781 86.042969 48.363281 86.347656 50.46875 C 86.648438 52.574219 86.890625 54.710938 87.066406 56.878906 C 87.242188 59.046875 87.355469 61.234375 87.402344 63.441406 C 87.453125 65.652344 87.4375 67.871094 87.355469 70.101562 C 87.273438 72.332031 87.128906 74.558594 86.921875 76.789062 C 86.710938 79.015625 86.441406 81.234375 86.105469 83.4375 C 85.773438 85.644531 85.375 87.828125 84.917969 89.988281 C 84.460938 92.152344 83.941406 94.28125 83.367188 96.378906 C 82.789062 98.476562 82.15625 100.53125 81.46875 102.542969 C 80.78125 104.554688 80.039062 106.515625 79.242188 108.421875 C 78.445312 110.328125 77.601562 112.175781 76.707031 113.960938 C 75.8125 115.746094 74.875 117.460938 73.890625 119.109375 C 72.90625 120.753906 71.882812 122.320312 70.816406 123.8125 C 69.753906 125.300781 68.652344 126.707031 67.519531 128.023438 C 66.382812 129.34375 65.21875 130.574219 64.027344 131.710938 C 62.832031 132.847656 61.613281 133.886719 60.371094 134.832031 C 59.128906 135.773438 57.867188 136.617188 56.589844 137.355469 C 55.3125 138.097656 54.023438 138.734375 52.722656 139.265625 C 51.421875 139.792969 50.113281 140.21875 48.800781 140.535156 C 47.488281 140.847656 46.175781 141.054688 44.863281 141.152344 C 43.554688 141.25 42.25 141.238281 40.953125 141.117188 C 39.65625 140.996094 38.375 140.765625 37.101562 140.425781 C 35.832031 140.085938 34.582031 139.640625 33.351562 139.085938 C 32.121094 138.535156 30.914062 137.875 29.734375 137.113281 C 28.554688 136.347656 27.402344 135.484375 26.285156 134.519531 C 25.167969 133.554688 24.085938 132.496094 23.039062 131.335938 C 21.996094 130.179688 20.992188 128.933594 20.027344 127.59375 C 19.066406 126.253906 18.152344 124.832031 17.28125 123.324219 C 16.410156 121.816406 15.589844 120.230469 14.820312 118.570312 C 14.050781 116.910156 13.335938 115.179688 12.675781 113.378906 C 12.015625 111.578125 11.410156 109.71875 10.863281 107.800781 C 10.316406 105.878906 9.828125 103.90625 9.402344 101.886719 C 8.972656 99.863281 8.609375 97.800781 8.304688 95.695312 C 8.003906 93.589844 7.761719 91.453125 7.585938 89.285156 C 7.410156 87.117188 7.296875 84.929688 7.246094 82.71875 C 7.199219 80.511719 7.214844 78.292969 7.296875 76.0625 C 7.375 73.832031 7.519531 71.605469 7.730469 69.375 C 7.9375 67.148438 8.210938 64.929688 8.546875 62.726562 C 8.878906 60.519531 9.277344 58.335938 9.734375 56.175781 C 10.191406 54.011719 10.707031 51.882812 11.285156 49.785156 C 11.859375 47.6875 12.492188 45.632812 13.183594 43.621094 C 13.871094 41.609375 14.613281 39.648438 15.410156 37.742188 C 16.203125 35.835938 17.050781 33.988281 17.941406 32.203125 C 18.835938 30.417969 19.777344 28.703125 20.761719 27.054688 C 21.746094 25.410156 22.769531 23.84375 23.832031 22.351562 C 24.898438 20.863281 25.996094 19.457031 27.132812 18.140625 C 28.265625 16.820312 29.433594 15.589844 30.625 14.453125 C 31.820312 13.316406 33.039062 12.277344 34.28125 11.332031 C 35.523438 10.390625 36.78125 9.546875 38.058594 8.808594 C 39.339844 8.066406 40.628906 7.429688 41.929688 6.898438 C 43.230469 6.371094 44.539062 5.945312 45.851562 5.628906 C 47.164062 5.316406 48.476562 5.109375 49.785156 5.011719 C 51.097656 4.914062 52.402344 4.925781 53.699219 5.046875 Z M 53.699219 5.046875 " fill-opacity="1" fill-rule="nonzero"/><path fill="#e99d2c" d="M 43.042969 141.992188 L 40.703125 141.992188 C 18.347656 139.910156 3.273438 107.433594 6.910156 69.496094 C 10.550781 31.5625 31.347656 2.460938 53.699219 4.539062 C 76.054688 6.617188 91.132812 39.097656 87.492188 77.03125 C 84.113281 113.410156 64.359375 141.992188 43.042969 141.992188 Z M 8.210938 69.496094 C 4.832031 106.652344 19.390625 138.613281 40.964844 140.691406 C 62.539062 142.769531 82.8125 114.1875 86.453125 76.773438 C 89.832031 39.617188 75.277344 7.65625 53.699219 5.578125 C 32.125 3.5 11.589844 32.082031 8.210938 69.496094 Z M 8.210938 69.496094 " fill-opacity="1" fill-rule="nonzero"/></g></g></g><path fill="#ffea57" d="M 162.484375 194.773438 C 108.675781 194.773438 72.804688 201.53125 72.804688 234.011719 C 72.804688 266.488281 108.675781 273.246094 162.484375 273.246094 C 206.671875 273.246094 252.164062 268.566406 252.164062 234.011719 C 252.164062 199.453125 206.933594 194.773438 162.484375 194.773438 Z M 162.484375 194.773438 " fill-opacity="1" fill-rule="nonzero"/><path fill="#e99d2c" d="M 162.484375 193.476562 C 118.554688 193.476562 71.503906 196.59375 71.503906 234.011719 C 71.503906 271.425781 118.292969 274.542969 162.484375 274.542969 C 207.453125 274.542969 253.464844 269.609375 253.464844 234.011719 C 253.464844 198.152344 207.453125 193.476562 162.484375 193.476562 Z M 162.484375 273.246094 C 108.675781 273.246094 72.804688 266.488281 72.804688 234.011719 C 72.804688 201.53125 108.675781 194.773438 162.484375 194.773438 C 206.671875 194.773438 252.164062 199.453125 252.164062 234.011719 C 252.164062 268.566406 206.933594 273.246094 162.484375 273.246094 Z M 162.484375 273.246094 " fill-opacity="0.91" fill-rule="nonzero"/><g mask="url(#74239194f5)"><g transform="matrix(1, 0, 0, 1, 209, 0)"><g clip-path="url(#69edda372c)"><path fill="#ffde44" d="M 89.261719 75.285156 C 89.511719 77.835938 89.691406 80.386719 89.808594 82.933594 C 89.925781 85.484375 89.976562 88.023438 89.960938 90.546875 C 89.949219 93.074219 89.867188 95.574219 89.722656 98.050781 C 89.578125 100.527344 89.367188 102.96875 89.09375 105.371094 C 88.820312 107.777344 88.480469 110.132812 88.078125 112.441406 C 87.679688 114.75 87.214844 117 86.691406 119.191406 C 86.164062 121.382812 85.582031 123.503906 84.941406 125.554688 C 84.296875 127.605469 83.597656 129.578125 82.84375 131.46875 C 82.089844 133.363281 81.285156 135.167969 80.425781 136.882812 C 79.566406 138.597656 78.660156 140.21875 77.703125 141.738281 C 76.75 143.261719 75.75 144.679688 74.707031 145.992188 C 73.667969 147.308594 72.585938 148.511719 71.464844 149.605469 C 70.347656 150.695312 69.195312 151.675781 68.011719 152.535156 C 66.824219 153.398438 65.613281 154.140625 64.371094 154.761719 C 63.132812 155.382812 61.871094 155.882812 60.585938 156.257812 C 59.304688 156.636719 58.007812 156.886719 56.691406 157.015625 C 55.378906 157.140625 54.054688 157.144531 52.726562 157.019531 C 51.394531 156.894531 50.058594 156.648438 48.722656 156.273438 C 47.386719 155.902344 46.054688 155.40625 44.726562 154.789062 C 43.398438 154.167969 42.078125 153.429688 40.769531 152.570312 C 39.464844 151.714844 38.171875 150.738281 36.898438 149.648438 C 35.621094 148.558594 34.371094 147.359375 33.140625 146.046875 C 31.910156 144.738281 30.710938 143.324219 29.539062 141.804688 C 28.367188 140.285156 27.230469 138.667969 26.125 136.953125 C 25.023438 135.242188 23.960938 133.441406 22.9375 131.550781 C 21.910156 129.660156 20.933594 127.6875 19.996094 125.640625 C 19.0625 123.589844 18.175781 121.472656 17.339844 119.28125 C 16.503906 117.09375 15.71875 114.847656 14.988281 112.539062 C 14.257812 110.230469 13.585938 107.875 12.964844 105.472656 C 12.347656 103.070312 11.792969 100.632812 11.292969 98.15625 C 10.792969 95.679688 10.359375 93.179688 9.984375 90.652344 C 9.609375 88.128906 9.300781 85.589844 9.050781 83.042969 C 8.804688 80.492188 8.625 77.941406 8.507812 75.394531 C 8.390625 72.84375 8.339844 70.304688 8.351562 67.78125 C 8.367188 65.253906 8.449219 62.753906 8.59375 60.277344 C 8.738281 57.800781 8.949219 55.359375 9.222656 52.953125 C 9.496094 50.550781 9.835938 48.195312 10.238281 45.886719 C 10.636719 43.578125 11.101562 41.328125 11.625 39.136719 C 12.148438 36.945312 12.734375 34.824219 13.375 32.773438 C 14.019531 30.722656 14.71875 28.75 15.472656 26.859375 C 16.226562 24.964844 17.03125 23.160156 17.890625 21.445312 C 18.75 19.730469 19.65625 18.109375 20.613281 16.589844 C 21.566406 15.066406 22.566406 13.648438 23.609375 12.332031 C 24.648438 11.019531 25.730469 9.816406 26.847656 8.722656 C 27.96875 7.628906 29.121094 6.652344 30.304688 5.792969 C 31.492188 4.929688 32.703125 4.1875 33.945312 3.566406 C 35.183594 2.945312 36.445312 2.445312 37.730469 2.066406 C 39.011719 1.691406 40.308594 1.441406 41.625 1.3125 C 42.9375 1.1875 44.257812 1.183594 45.589844 1.308594 C 46.921875 1.429688 48.257812 1.679688 49.59375 2.050781 C 50.929688 2.425781 52.261719 2.921875 53.589844 3.539062 C 54.917969 4.160156 56.238281 4.898438 57.542969 5.753906 C 58.851562 6.613281 60.144531 7.585938 61.417969 8.675781 C 62.695312 9.765625 63.945312 10.96875 65.175781 12.277344 C 66.402344 13.589844 67.605469 15.003906 68.777344 16.523438 C 69.949219 18.042969 71.085938 19.660156 72.1875 21.371094 C 73.292969 23.085938 74.355469 24.886719 75.378906 26.777344 C 76.402344 28.667969 77.382812 30.636719 78.320312 32.6875 C 79.253906 34.738281 80.140625 36.855469 80.976562 39.046875 C 81.8125 41.234375 82.597656 43.480469 83.328125 45.789062 C 84.058594 48.09375 84.730469 50.449219 85.347656 52.855469 C 85.964844 55.257812 86.523438 57.695312 87.023438 60.171875 C 87.519531 62.648438 87.957031 65.148438 88.332031 67.671875 C 88.707031 70.199219 89.015625 72.734375 89.261719 75.285156 Z M 89.261719 75.285156 " fill-opacity="1" fill-rule="nonzero"/><path fill="#e99d2c" d="M 54.859375 157.878906 C 44.722656 157.878906 34.324219 150.601562 25.746094 137.351562 C 16.648438 123.320312 10.671875 104.09375 8.589844 83.046875 C 6.511719 62 8.851562 41.992188 15.089844 26.402344 C 21.328125 10.8125 30.6875 1.457031 41.605469 0.417969 C 52.519531 -0.621094 63.699219 6.65625 72.796875 20.6875 C 81.894531 34.71875 87.871094 53.945312 89.953125 74.992188 C 92.03125 96.039062 89.691406 116.046875 83.453125 131.636719 C 77.214844 147.226562 67.859375 156.578125 56.941406 157.617188 C 56.160156 157.878906 55.378906 157.878906 54.859375 157.878906 Z M 43.683594 1.71875 L 41.605469 1.71875 C 31.207031 2.757812 22.109375 11.59375 16.128906 26.921875 C 10.152344 42.253906 7.8125 62.261719 9.890625 82.785156 C 11.96875 103.574219 17.949219 122.542969 26.785156 136.574219 C 35.625 150.34375 46.28125 157.359375 56.679688 156.320312 C 67.078125 155.28125 76.175781 146.445312 82.152344 131.117188 C 88.132812 115.785156 90.472656 95.777344 88.394531 75.25 C 86.3125 54.722656 80.335938 35.496094 71.496094 21.464844 C 63.4375 8.734375 53.5625 1.71875 43.683594 1.71875 Z M 43.683594 1.71875 " fill-opacity="1" fill-rule="nonzero"/></g></g></g><g mask="url(#2291d0e1f2)"><g transform="matrix(1, 0, 0, 1, 210, 133)"><g clip-path="url(#80a6136e69)"><path fill="#ffea57" d="M 56.46875 8.992188 C 57.613281 9.253906 58.738281 9.589844 59.84375 9.996094 C 60.949219 10.402344 62.03125 10.882812 63.089844 11.429688 C 64.144531 11.980469 65.171875 12.59375 66.167969 13.28125 C 67.164062 13.964844 68.125 14.714844 69.054688 15.527344 C 69.980469 16.339844 70.867188 17.214844 71.714844 18.148438 C 72.566406 19.085938 73.371094 20.074219 74.132812 21.125 C 74.894531 22.171875 75.609375 23.269531 76.277344 24.417969 C 76.945312 25.570312 77.5625 26.765625 78.132812 28.007812 C 78.699219 29.246094 79.214844 30.527344 79.675781 31.847656 C 80.136719 33.167969 80.542969 34.523438 80.894531 35.910156 C 81.246094 37.296875 81.542969 38.710938 81.78125 40.152344 C 82.019531 41.589844 82.199219 43.050781 82.320312 44.53125 C 82.441406 46.011719 82.507812 47.503906 82.511719 49.007812 C 82.515625 50.511719 82.460938 52.023438 82.351562 53.539062 C 82.238281 55.054688 82.066406 56.566406 81.839844 58.078125 C 81.613281 59.589844 81.328125 61.09375 80.984375 62.585938 C 80.640625 64.078125 80.246094 65.554688 79.792969 67.015625 C 79.339844 68.476562 78.832031 69.914062 78.273438 71.324219 C 77.714844 72.738281 77.105469 74.121094 76.445312 75.472656 C 75.785156 76.828125 75.078125 78.144531 74.324219 79.421875 C 73.570312 80.699219 72.773438 81.9375 71.929688 83.128906 C 71.089844 84.324219 70.207031 85.46875 69.285156 86.5625 C 68.367188 87.660156 67.410156 88.699219 66.417969 89.6875 C 65.429688 90.675781 64.40625 91.605469 63.355469 92.476562 C 62.304688 93.347656 61.226562 94.152344 60.125 94.898438 C 59.023438 95.640625 57.898438 96.320312 56.757812 96.933594 C 55.617188 97.542969 54.457031 98.085938 53.289062 98.558594 C 52.117188 99.03125 50.9375 99.429688 49.746094 99.761719 C 48.558594 100.089844 47.367188 100.34375 46.171875 100.527344 C 44.976562 100.710938 43.785156 100.816406 42.59375 100.851562 C 41.402344 100.886719 40.222656 100.847656 39.050781 100.730469 C 37.875 100.617188 36.71875 100.429688 35.570312 100.167969 C 34.425781 99.902344 33.300781 99.570312 32.195312 99.160156 C 31.089844 98.753906 30.007812 98.277344 28.953125 97.726562 C 27.894531 97.179688 26.867188 96.5625 25.871094 95.878906 C 24.875 95.195312 23.914062 94.445312 22.988281 93.632812 C 22.058594 92.816406 21.171875 91.945312 20.324219 91.007812 C 19.476562 90.074219 18.667969 89.082031 17.90625 88.035156 C 17.144531 86.988281 16.429688 85.890625 15.761719 84.738281 C 15.09375 83.589844 14.476562 82.394531 13.910156 81.152344 C 13.339844 79.910156 12.824219 78.628906 12.363281 77.308594 C 11.902344 75.988281 11.496094 74.636719 11.144531 73.25 C 10.792969 71.863281 10.496094 70.449219 10.257812 69.007812 C 10.019531 67.566406 9.839844 66.105469 9.71875 64.628906 C 9.597656 63.148438 9.535156 61.65625 9.527344 60.148438 C 9.523438 58.644531 9.578125 57.136719 9.6875 55.621094 C 9.800781 54.105469 9.972656 52.589844 10.199219 51.078125 C 10.429688 49.566406 10.714844 48.066406 11.054688 46.574219 C 11.398438 45.078125 11.796875 43.601562 12.25 42.144531 C 12.699219 40.683594 13.207031 39.246094 13.765625 37.832031 C 14.324219 36.417969 14.933594 35.035156 15.59375 33.683594 C 16.253906 32.332031 16.960938 31.015625 17.714844 29.738281 C 18.46875 28.457031 19.269531 27.222656 20.109375 26.027344 C 20.949219 24.835938 21.832031 23.691406 22.753906 22.59375 C 23.671875 21.5 24.628906 20.457031 25.621094 19.46875 C 26.613281 18.480469 27.632812 17.554688 28.683594 16.683594 C 29.734375 15.8125 30.8125 15.003906 31.914062 14.261719 C 33.019531 13.515625 34.140625 12.839844 35.28125 12.226562 C 36.425781 11.617188 37.582031 11.074219 38.753906 10.601562 C 39.921875 10.128906 41.105469 9.726562 42.292969 9.398438 C 43.480469 9.070312 44.671875 8.8125 45.867188 8.632812 C 47.0625 8.449219 48.257812 8.339844 49.445312 8.304688 C 50.636719 8.273438 51.816406 8.3125 52.992188 8.425781 C 54.164062 8.542969 55.324219 8.730469 56.46875 8.992188 Z M 56.46875 8.992188 " fill-opacity="1" fill-rule="nonzero"/><path fill="#e99d2c" d="M 41.902344 101.269531 C 39.824219 101.269531 37.484375 101.011719 35.40625 100.492188 C 25.785156 98.410156 17.988281 91.394531 13.308594 81.261719 C 8.632812 71.128906 7.589844 58.65625 10.449219 46.445312 C 16.167969 20.980469 36.964844 4.09375 56.460938 8.507812 C 66.078125 10.589844 73.875 17.601562 78.554688 27.738281 C 83.234375 37.871094 84.273438 50.34375 81.414062 62.554688 C 78.554688 74.765625 72.316406 85.679688 63.476562 92.695312 C 56.980469 98.410156 49.441406 101.269531 41.902344 101.269531 Z M 50.222656 9.027344 C 33.324219 9.027344 16.949219 24.617188 11.75 46.703125 C 8.890625 58.65625 9.929688 70.871094 14.609375 80.742188 C 19.027344 90.617188 26.566406 97.371094 35.664062 99.453125 C 44.761719 101.53125 54.378906 98.933594 62.699219 91.917969 C 71.015625 84.902344 77.253906 74.507812 80.113281 62.554688 C 82.972656 50.601562 81.933594 38.390625 77.253906 28.515625 C 72.835938 18.644531 65.296875 11.886719 56.199219 9.808594 C 54.378906 9.289062 52.300781 9.027344 50.222656 9.027344 Z M 50.222656 9.027344 " fill-opacity="1" fill-rule="nonzero"/></g></g></g><g clip-path="url(#2317a2636e)"><g mask="url(#ade332e673)"><g transform="matrix(1, 0, 0, 1, 250, 114)"><g clip-path="url(#5ff44ea06d)"><path fill="#ffea57" d="M 44.273438 71.160156 C 73.125 81.554688 99.378906 81.816406 107.957031 57.910156 C 116.535156 34.003906 96 17.636719 67.148438 7.242188 C 38.296875 -3.152344 9.960938 2.566406 3.464844 20.234375 C -3.035156 37.902344 15.421875 60.769531 44.273438 71.160156 Z M 44.273438 71.160156 " fill-opacity="1" fill-rule="nonzero"/><g clip-path="url(#905e38f07b)"><path fill="#e99d2c" d="M 76.765625 78.4375 C 68.1875 78.4375 57.53125 76.359375 44.011719 71.679688 C 29.976562 66.746094 18.019531 58.429688 10.222656 48.816406 C 2.421875 38.941406 -0.175781 28.808594 2.941406 19.972656 C 9.441406 2.046875 38.292969 -4.191406 67.667969 6.460938 C 88.984375 13.996094 103.019531 24.132812 108.21875 35.5625 C 111.339844 42.578125 111.597656 50.113281 108.738281 57.910156 C 104.839844 68.304688 96.261719 78.4375 76.765625 78.4375 Z M 44.535156 70.382812 C 67.929688 78.695312 98.082031 83.375 107.4375 57.648438 C 110.296875 50.113281 110.039062 42.839844 106.917969 36.34375 C 101.71875 25.171875 87.945312 15.296875 66.886719 7.761719 C 38.296875 -2.371094 10.222656 3.34375 3.984375 20.492188 C 0.863281 28.808594 3.464844 38.683594 11 48.035156 C 18.800781 57.390625 30.757812 65.445312 44.535156 70.382812 Z M 44.535156 70.382812 " fill-opacity="1" fill-rule="nonzero"/></g></g></g></g></g><g mask="url(#1ef8ef152a)"><g transform="matrix(1, 0, 0, 1, 167, 0)"><g clip-path="url(#44345d65d2)"><path fill="#fff157" d="M 15.238281 96.296875 C 31.355469 137.351562 63.070312 163.59375 85.683594 154.5 C 108.296875 145.667969 113.496094 104.871094 97.121094 63.558594 C 80.746094 22.246094 57.871094 -6.078125 26.675781 5.355469 C -4.515625 16.789062 -1.136719 54.984375 15.238281 96.296875 Z M 15.238281 96.296875 " fill-opacity="1" fill-rule="nonzero"/><path fill="#e99d2c" d="M 76.324219 157.097656 C 54.75 157.097656 28.757812 132.414062 14.460938 96.558594 C 1.722656 64.597656 -1.136719 39.132812 6.140625 23.023438 C 10.039062 14.449219 16.800781 8.214844 26.417969 4.835938 C 53.96875 -5.296875 78.664062 15.230469 97.898438 63.558594 C 114.277344 105.132812 109.078125 146.1875 85.941406 155.28125 C 82.824219 156.320312 79.703125 157.097656 76.324219 157.097656 Z M 40.195312 3.539062 C 35.773438 3.539062 31.355469 4.316406 26.675781 6.136719 C 17.578125 9.511719 11.082031 15.488281 7.179688 23.804688 C 0.164062 39.652344 3.023438 64.597656 15.5 96.296875 C 31.875 136.832031 63.070312 162.816406 85.421875 153.980469 C 107.777344 145.148438 112.71875 104.871094 96.601562 64.078125 C 80.746094 23.804688 61.769531 3.539062 40.195312 3.539062 Z M 40.195312 3.539062 " fill-opacity="1" fill-rule="nonzero"/></g></g></g><g mask="url(#598c3b5e42)"><g transform="matrix(1, 0, 0, 1, 193, 228)"><g clip-path="url(#754c12d5ff)"><path fill="#fff157" d="M 32.910156 105.265625 C 60.203125 140.34375 98.933594 155.675781 119.46875 139.566406 C 140.003906 123.457031 134.804688 82.140625 107.511719 47.0625 C 80.21875 11.988281 52.40625 -11.140625 20.953125 13.027344 C -10.5 37.191406 5.617188 70.449219 32.910156 105.265625 Z M 32.910156 105.265625 " fill-opacity="1" fill-rule="nonzero"/><g clip-path="url(#ef7da9e641)"><path fill="#e99d2c" d="M 99.714844 146.582031 C 78.917969 146.582031 52.40625 131.511719 32.390625 105.785156 C 10.292969 77.203125 1.195312 56.9375 3.277344 39.789062 C 4.574219 29.394531 10.292969 20.042969 20.433594 12.507812 C 53.964844 -13.21875 83.597656 15.363281 108.03125 46.804688 C 135.324219 81.882812 140.785156 123.976562 119.988281 140.085938 C 114.269531 144.503906 107.253906 146.582031 99.714844 146.582031 Z M 33.429688 105.007812 C 60.464844 139.566406 98.933594 154.894531 119.210938 139.304688 C 139.484375 123.457031 134.027344 82.402344 107.253906 47.84375 C 64.101562 -7.5 39.667969 -0.484375 21.472656 13.546875 C 11.59375 21.082031 6.136719 29.914062 4.835938 40.046875 C 2.496094 56.679688 11.335938 76.683594 33.429688 105.007812 Z M 33.429688 105.007812 " fill-opacity="1" fill-rule="nonzero"/></g></g></g></g><path fill="#ffff85" d="M 244.886719 42.511719 C 245.144531 43.03125 246.183594 42.773438 245.925781 41.992188 C 239.425781 21.984375 219.410156 14.191406 213.691406 13.152344 C 204.074219 11.332031 201.734375 17.828125 209.273438 18.867188 C 225.128906 20.945312 237.347656 29.78125 244.886719 42.511719 Z M 244.886719 42.511719 " fill-opacity="1" fill-rule="nonzero"/><path fill="#ffff85" d="M 200.957031 15.488281 C 200.957031 15.867188 200.863281 16.234375 200.679688 16.582031 C 200.492188 16.933594 200.230469 17.242188 199.890625 17.511719 C 199.546875 17.777344 199.15625 17.984375 198.707031 18.128906 C 198.261719 18.273438 197.796875 18.347656 197.316406 18.347656 C 196.832031 18.347656 196.367188 18.273438 195.921875 18.128906 C 195.476562 17.984375 195.082031 17.777344 194.742188 17.511719 C 194.402344 17.242188 194.136719 16.933594 193.953125 16.582031 C 193.769531 16.234375 193.675781 15.867188 193.675781 15.488281 C 193.675781 15.109375 193.769531 14.746094 193.953125 14.394531 C 194.136719 14.046875 194.402344 13.738281 194.742188 13.46875 C 195.082031 13.199219 195.476562 12.992188 195.921875 12.847656 C 196.367188 12.703125 196.832031 12.632812 197.316406 12.632812 C 197.796875 12.632812 198.261719 12.703125 198.707031 12.847656 C 199.15625 12.992188 199.546875 13.199219 199.890625 13.46875 C 200.230469 13.738281 200.492188 14.046875 200.679688 14.394531 C 200.863281 14.746094 200.957031 15.109375 200.957031 15.488281 Z M 200.957031 15.488281 " fill-opacity="1" fill-rule="nonzero"/><path fill="#e99d2c" d="M 239.425781 148.785156 C 238.125 148.785156 237.085938 147.746094 236.828125 146.445312 C 230.847656 104.613281 217.332031 79.410156 207.195312 65.636719 C 196.015625 50.828125 186.136719 45.628906 186.136719 45.628906 C 184.839844 45.109375 184.320312 43.550781 185.097656 42.253906 C 185.617188 40.953125 187.179688 40.433594 188.476562 40.953125 C 190.039062 41.992188 230.328125 62.78125 242.027344 145.667969 C 242.285156 146.964844 241.246094 148.523438 239.6875 148.523438 C 239.6875 148.785156 239.425781 148.785156 239.425781 148.785156 Z M 239.425781 148.785156 " fill-opacity="0.66" fill-rule="nonzero"/><path fill="#ffff85" d="M 254.242188 8.992188 C 258.921875 8.214844 270.359375 16.527344 272.699219 21.207031 C 275.039062 25.882812 246.183594 10.550781 254.242188 8.992188 Z M 254.242188 8.992188 " fill-opacity="1" fill-rule="nonzero"/><path fill="#ffff85" d="M 354.320312 160.996094 C 354.578125 161.515625 355.621094 161.257812 355.359375 160.476562 C 349.121094 140.210938 328.84375 132.675781 323.125 131.375 C 313.507812 129.558594 311.167969 136.054688 318.96875 137.09375 C 334.824219 139.171875 347.042969 148.003906 354.320312 160.996094 Z M 354.320312 160.996094 " fill-opacity="1" fill-rule="nonzero"/><path fill="#ffba08" d="M 287.515625 167.753906 C 286.996094 167.234375 286.214844 168.011719 286.734375 168.53125 C 301.8125 186.71875 319.488281 188.019531 334.042969 186.980469 C 344.960938 186.199219 344.441406 179.445312 336.125 181.523438 C 318.96875 186.199219 300.511719 177.886719 287.515625 167.753906 Z M 287.515625 167.753906 " fill-opacity="0.66" fill-rule="nonzero"/><path fill="#ffff85" d="M 258.402344 179.183594 C 253.722656 172.429688 246.964844 215.820312 251.382812 209.066406 C 256.0625 202.3125 261.261719 183.34375 258.402344 179.183594 Z M 258.402344 179.183594 " fill-opacity="1" fill-rule="nonzero"/><path fill="#ffff85" d="M 280.238281 269.609375 C 280.496094 270.128906 281.535156 269.867188 281.277344 269.089844 C 275.039062 248.820312 254.761719 241.285156 249.042969 239.988281 C 239.425781 238.167969 237.085938 244.664062 244.886719 245.703125 C 260.480469 248.042969 272.699219 256.875 280.238281 269.609375 Z M 280.238281 269.609375 " fill-opacity="1" fill-rule="nonzero"/><path fill="#ffff85" d="M 236.566406 242.585938 C 236.566406 242.964844 236.472656 243.328125 236.289062 243.679688 C 236.105469 244.027344 235.84375 244.339844 235.5 244.605469 C 235.160156 244.875 234.765625 245.082031 234.320312 245.226562 C 233.875 245.371094 233.410156 245.441406 232.925781 245.441406 C 232.445312 245.441406 231.980469 245.371094 231.535156 245.226562 C 231.089844 245.082031 230.695312 244.875 230.355469 244.605469 C 230.011719 244.339844 229.75 244.027344 229.566406 243.679688 C 229.382812 243.328125 229.289062 242.964844 229.289062 242.585938 C 229.289062 242.207031 229.382812 241.839844 229.566406 241.492188 C 229.75 241.140625 230.011719 240.832031 230.355469 240.5625 C 230.695312 240.296875 231.089844 240.089844 231.535156 239.945312 C 231.980469 239.800781 232.445312 239.726562 232.925781 239.726562 C 233.410156 239.726562 233.875 239.800781 234.320312 239.945312 C 234.765625 240.089844 235.160156 240.296875 235.5 240.5625 C 235.84375 240.832031 236.105469 241.140625 236.289062 241.492188 C 236.472656 241.839844 236.566406 242.207031 236.566406 242.585938 Z M 236.566406 242.585938 " fill-opacity="1" fill-rule="nonzero"/><path fill="#ffba08" d="M 251.382812 349.636719 C 250.863281 349.117188 250.082031 349.898438 250.605469 350.417969 C 265.679688 368.605469 283.355469 369.902344 297.914062 368.863281 C 308.832031 368.085938 308.308594 361.328125 299.992188 363.40625 C 283.097656 368.085938 264.378906 359.511719 251.382812 349.636719 Z M 251.382812 349.636719 " fill-opacity="0.66" fill-rule="nonzero"/><path fill="#ffff85" d="M 245.664062 282.078125 C 232.925781 276.363281 296.351562 344.699219 288.296875 330.929688 C 280.238281 317.417969 253.464844 285.457031 245.664062 282.078125 Z M 245.664062 282.078125 " fill-opacity="1" fill-rule="nonzero"/><path fill="#e99d2c" d="M 108.417969 237.386719 C 107.375 237.386719 106.335938 236.609375 106.078125 235.570312 C 105.558594 234.269531 106.335938 232.710938 107.636719 232.191406 C 109.457031 231.671875 151.304688 216.601562 216.8125 232.191406 C 218.109375 232.453125 219.152344 234.011719 218.632812 235.308594 C 218.371094 236.609375 216.8125 237.648438 215.511719 237.128906 C 151.566406 222.058594 109.714844 236.867188 109.457031 237.128906 C 108.9375 237.386719 108.675781 237.386719 108.417969 237.386719 Z M 108.417969 237.386719 " fill-opacity="0.66" fill-rule="nonzero"/><path fill="#ffff85" d="M 134.671875 235.570312 C 121.933594 241.285156 214.992188 240.507812 199.65625 237.128906 C 184.058594 233.75 142.46875 232.191406 134.671875 235.570312 Z M 134.671875 235.570312 " fill-opacity="1" fill-rule="nonzero"/><path fill="#ffff85" d="M 147.667969 199.191406 C 136.230469 203.871094 218.109375 205.429688 204.59375 202.3125 C 191.078125 198.933594 154.6875 196.335938 147.667969 199.191406 Z M 147.667969 199.191406 " fill-opacity="1" fill-rule="nonzero"/><path fill="#ffff85" d="M 129.847656 237.25 C 129.898438 237.449219 129.855469 237.664062 129.722656 237.894531 C 129.59375 238.125 129.378906 238.355469 129.082031 238.578125 C 128.789062 238.804688 128.433594 239.011719 128.023438 239.195312 C 127.609375 239.382812 127.167969 239.535156 126.699219 239.652344 C 126.234375 239.769531 125.773438 239.847656 125.320312 239.878906 C 124.871094 239.910156 124.460938 239.898438 124.09375 239.839844 C 123.726562 239.78125 123.429688 239.683594 123.203125 239.542969 C 122.980469 239.402344 122.839844 239.234375 122.789062 239.03125 C 122.738281 238.832031 122.78125 238.617188 122.914062 238.386719 C 123.042969 238.15625 123.257812 237.929688 123.554688 237.703125 C 123.847656 237.476562 124.203125 237.273438 124.613281 237.085938 C 125.027344 236.898438 125.46875 236.746094 125.9375 236.628906 C 126.402344 236.511719 126.863281 236.4375 127.316406 236.402344 C 127.765625 236.371094 128.175781 236.382812 128.542969 236.441406 C 128.910156 236.5 129.207031 236.597656 129.433594 236.738281 C 129.65625 236.878906 129.796875 237.050781 129.847656 237.25 Z M 129.847656 237.25 " fill-opacity="1" fill-rule="nonzero"/><g mask="url(#b36fd06084)"><g transform="matrix(1, 0, 0, 1, 22, 147)"><g clip-path="url(#91fe5a3009)"><path fill="#ffea57" d="M 71.582031 37.597656 C 71.855469 38.792969 72.078125 39.996094 72.25 41.207031 C 72.421875 42.417969 72.542969 43.632812 72.613281 44.847656 C 72.683594 46.066406 72.703125 47.28125 72.667969 48.488281 C 72.636719 49.699219 72.550781 50.902344 72.417969 52.09375 C 72.28125 53.285156 72.097656 54.464844 71.859375 55.625 C 71.625 56.789062 71.335938 57.929688 71 59.050781 C 70.664062 60.175781 70.28125 61.269531 69.851562 62.339844 C 69.421875 63.410156 68.941406 64.449219 68.417969 65.457031 C 67.898438 66.464844 67.332031 67.4375 66.722656 68.375 C 66.113281 69.3125 65.460938 70.207031 64.773438 71.0625 C 64.082031 71.921875 63.355469 72.730469 62.589844 73.5 C 61.824219 74.265625 61.027344 74.984375 60.195312 75.65625 C 59.367188 76.328125 58.503906 76.945312 57.617188 77.515625 C 56.726562 78.082031 55.8125 78.597656 54.871094 79.054688 C 53.929688 79.515625 52.972656 79.917969 51.992188 80.265625 C 51.007812 80.613281 50.011719 80.902344 49 81.132812 C 47.988281 81.363281 46.964844 81.539062 45.929688 81.648438 C 44.894531 81.761719 43.855469 81.816406 42.808594 81.808594 C 41.761719 81.804688 40.714844 81.738281 39.667969 81.613281 C 38.617188 81.488281 37.574219 81.300781 36.535156 81.058594 C 35.496094 80.816406 34.464844 80.515625 33.441406 80.15625 C 32.421875 79.796875 31.414062 79.378906 30.417969 78.910156 C 29.425781 78.4375 28.449219 77.910156 27.496094 77.332031 C 26.539062 76.753906 25.605469 76.125 24.695312 75.441406 C 23.789062 74.761719 22.90625 74.03125 22.054688 73.253906 C 21.199219 72.476562 20.378906 71.65625 19.589844 70.792969 C 18.800781 69.925781 18.046875 69.023438 17.328125 68.078125 C 16.609375 67.132812 15.929688 66.152344 15.289062 65.136719 C 14.652344 64.121094 14.054688 63.078125 13.5 62 C 12.941406 60.925781 12.433594 59.824219 11.96875 58.695312 C 11.503906 57.570312 11.085938 56.425781 10.714844 55.257812 C 10.34375 54.089844 10.019531 52.910156 9.746094 51.714844 C 9.472656 50.523438 9.25 49.320312 9.078125 48.105469 C 8.90625 46.894531 8.785156 45.679688 8.714844 44.464844 C 8.644531 43.246094 8.625 42.035156 8.660156 40.824219 C 8.691406 39.613281 8.777344 38.410156 8.910156 37.21875 C 9.046875 36.027344 9.230469 34.851562 9.46875 33.6875 C 9.703125 32.523438 9.992188 31.382812 10.328125 30.261719 C 10.660156 29.140625 11.046875 28.042969 11.476562 26.972656 C 11.90625 25.902344 12.386719 24.863281 12.910156 23.855469 C 13.429688 22.847656 13.996094 21.875 14.605469 20.9375 C 15.214844 20 15.867188 19.105469 16.554688 18.25 C 17.246094 17.394531 17.972656 16.582031 18.738281 15.816406 C 19.503906 15.046875 20.300781 14.328125 21.132812 13.65625 C 21.960938 12.988281 22.824219 12.367188 23.710938 11.800781 C 24.601562 11.230469 25.515625 10.71875 26.457031 10.257812 C 27.398438 9.796875 28.355469 9.394531 29.335938 9.046875 C 30.320312 8.699219 31.316406 8.410156 32.328125 8.179688 C 33.339844 7.949219 34.363281 7.777344 35.398438 7.664062 C 36.433594 7.550781 37.472656 7.496094 38.519531 7.503906 C 39.566406 7.511719 40.613281 7.574219 41.660156 7.703125 C 42.710938 7.828125 43.753906 8.011719 44.792969 8.253906 C 45.832031 8.5 46.863281 8.800781 47.886719 9.160156 C 48.90625 9.519531 49.914062 9.933594 50.910156 10.40625 C 51.902344 10.875 52.878906 11.402344 53.832031 11.980469 C 54.789062 12.558594 55.722656 13.191406 56.632812 13.871094 C 57.539062 14.554688 58.421875 15.28125 59.273438 16.058594 C 60.128906 16.835938 60.949219 17.65625 61.738281 18.523438 C 62.527344 19.386719 63.28125 20.292969 64 21.234375 C 64.71875 22.179688 65.398438 23.160156 66.039062 24.175781 C 66.675781 25.191406 67.273438 26.238281 67.828125 27.3125 C 68.386719 28.386719 68.894531 29.488281 69.359375 30.617188 C 69.824219 31.742188 70.242188 32.890625 70.613281 34.054688 C 70.984375 35.222656 71.308594 36.402344 71.582031 37.597656 Z M 71.582031 37.597656 " fill-opacity="1" fill-rule="nonzero"/><path fill="#e99d2c" d="M 43.007812 82.59375 C 27.671875 82.59375 13.375 69.859375 9.214844 51.933594 C 6.875 42.058594 8.175781 31.925781 12.332031 23.609375 C 16.753906 15.296875 23.769531 9.578125 32.089844 7.5 C 49.503906 3.601562 67.441406 17.113281 72.121094 37.640625 C 74.460938 47.515625 73.160156 57.648438 69 65.964844 C 64.582031 74.277344 57.5625 79.996094 49.246094 82.074219 C 47.164062 82.332031 45.085938 82.59375 43.007812 82.59375 Z M 38.328125 8.019531 C 36.507812 8.019531 34.429688 8.28125 32.609375 8.800781 C 24.550781 10.617188 17.792969 16.074219 13.632812 24.128906 C 9.472656 32.183594 8.433594 42.058594 10.515625 51.671875 C 14.933594 71.421875 32.347656 84.410156 48.984375 80.773438 C 57.042969 78.957031 63.800781 73.5 67.960938 65.445312 C 72.121094 57.390625 73.160156 47.515625 71.078125 37.902344 C 66.921875 20.234375 52.882812 8.019531 38.328125 8.019531 Z M 38.328125 8.019531 " fill-opacity="1" fill-rule="nonzero"/></g></g></g><g mask="url(#0caab92b86)"><g transform="matrix(1, 0, 0, 1, 26, 103)"><g clip-path="url(#17f2734896)"><path fill="#ffea57" d="M 43.484375 28.378906 C 43.605469 29.214844 43.695312 30.050781 43.753906 30.886719 C 43.8125 31.726562 43.839844 32.5625 43.832031 33.398438 C 43.828125 34.234375 43.789062 35.066406 43.722656 35.890625 C 43.652344 36.714844 43.550781 37.53125 43.417969 38.335938 C 43.285156 39.144531 43.121094 39.933594 42.925781 40.714844 C 42.730469 41.492188 42.507812 42.253906 42.253906 43 C 41.996094 43.746094 41.714844 44.46875 41.402344 45.171875 C 41.089844 45.875 40.75 46.554688 40.382812 47.210938 C 40.015625 47.867188 39.625 48.496094 39.207031 49.097656 C 38.789062 49.695312 38.347656 50.269531 37.882812 50.808594 C 37.417969 51.347656 36.933594 51.855469 36.425781 52.332031 C 35.917969 52.808594 35.390625 53.246094 34.847656 53.652344 C 34.300781 54.058594 33.742188 54.425781 33.164062 54.757812 C 32.585938 55.089844 31.996094 55.382812 31.390625 55.636719 C 30.785156 55.890625 30.171875 56.105469 29.546875 56.277344 C 28.921875 56.453125 28.289062 56.585938 27.648438 56.679688 C 27.007812 56.773438 26.363281 56.824219 25.714844 56.835938 C 25.066406 56.847656 24.414062 56.816406 23.761719 56.746094 C 23.113281 56.675781 22.460938 56.5625 21.8125 56.410156 C 21.164062 56.257812 20.523438 56.066406 19.886719 55.832031 C 19.246094 55.601562 18.617188 55.328125 17.996094 55.015625 C 17.375 54.707031 16.761719 54.359375 16.164062 53.972656 C 15.5625 53.585938 14.976562 53.164062 14.40625 52.710938 C 13.832031 52.253906 13.277344 51.761719 12.738281 51.238281 C 12.199219 50.714844 11.679688 50.160156 11.179688 49.574219 C 10.679688 48.992188 10.203125 48.378906 9.746094 47.734375 C 9.289062 47.09375 8.855469 46.429688 8.445312 45.738281 C 8.039062 45.046875 7.65625 44.332031 7.296875 43.597656 C 6.941406 42.863281 6.609375 42.113281 6.308594 41.339844 C 6.007812 40.570312 5.734375 39.785156 5.488281 38.984375 C 5.246094 38.1875 5.03125 37.375 4.847656 36.554688 C 4.664062 35.734375 4.511719 34.90625 4.390625 34.074219 C 4.269531 33.242188 4.179688 32.40625 4.121094 31.566406 C 4.0625 30.726562 4.035156 29.890625 4.042969 29.054688 C 4.046875 28.21875 4.085938 27.386719 4.152344 26.5625 C 4.222656 25.738281 4.324219 24.921875 4.457031 24.117188 C 4.589844 23.3125 4.753906 22.519531 4.949219 21.738281 C 5.144531 20.960938 5.367188 20.199219 5.621094 19.453125 C 5.875 18.707031 6.160156 17.984375 6.472656 17.28125 C 6.785156 16.578125 7.125 15.898438 7.492188 15.242188 C 7.859375 14.585938 8.25 13.957031 8.667969 13.359375 C 9.085938 12.757812 9.527344 12.1875 9.992188 11.644531 C 10.457031 11.105469 10.941406 10.597656 11.449219 10.121094 C 11.957031 9.644531 12.484375 9.207031 13.027344 8.800781 C 13.574219 8.394531 14.132812 8.027344 14.710938 7.695312 C 15.289062 7.363281 15.878906 7.070312 16.484375 6.816406 C 17.089844 6.5625 17.703125 6.351562 18.328125 6.175781 C 18.953125 6 19.585938 5.867188 20.226562 5.773438 C 20.867188 5.679688 21.511719 5.628906 22.160156 5.617188 C 22.808594 5.605469 23.460938 5.636719 24.113281 5.707031 C 24.761719 5.777344 25.414062 5.890625 26.0625 6.042969 C 26.707031 6.195312 27.351562 6.386719 27.988281 6.621094 C 28.628906 6.855469 29.257812 7.125 29.878906 7.4375 C 30.5 7.746094 31.113281 8.09375 31.710938 8.480469 C 32.3125 8.867188 32.898438 9.289062 33.46875 9.746094 C 34.042969 10.203125 34.597656 10.691406 35.136719 11.214844 C 35.675781 11.738281 36.195312 12.292969 36.695312 12.878906 C 37.195312 13.464844 37.671875 14.078125 38.128906 14.71875 C 38.585938 15.359375 39.019531 16.027344 39.429688 16.71875 C 39.835938 17.40625 40.21875 18.121094 40.578125 18.855469 C 40.933594 19.589844 41.265625 20.34375 41.566406 21.113281 C 41.867188 21.882812 42.140625 22.667969 42.386719 23.46875 C 42.628906 24.269531 42.84375 25.078125 43.027344 25.898438 C 43.210938 26.71875 43.363281 27.546875 43.484375 28.378906 Z M 43.484375 28.378906 " fill-opacity="1" fill-rule="nonzero"/><path fill="#e99d2c" d="M 25.230469 57.21875 C 20.550781 57.21875 15.871094 55.140625 11.972656 51.5 C 7.554688 47.082031 4.433594 40.847656 3.394531 34.09375 C 1.316406 19.800781 8.59375 6.808594 20.03125 5.25 C 31.207031 3.691406 42.125 14.085938 44.207031 28.375 C 46.285156 42.667969 39.007812 55.660156 27.570312 57.21875 Z M 4.953125 33.832031 C 5.992188 40.589844 8.851562 46.304688 13.011719 50.460938 C 17.171875 54.617188 22.371094 56.4375 27.570312 55.660156 C 37.964844 54.097656 44.984375 41.886719 42.90625 28.117188 C 40.824219 14.605469 30.6875 4.730469 20.289062 6.289062 C 9.894531 7.847656 2.875 20.320312 4.953125 33.832031 Z M 4.953125 33.832031 " fill-opacity="1" fill-rule="nonzero"/></g></g></g><g mask="url(#38780c4c4a)"><g transform="matrix(1, 0, 0, 1, 29, 70)"><g clip-path="url(#23e2f0264b)"><path fill="#ffea57" d="M 30.808594 21.101562 C 30.808594 21.730469 30.785156 22.359375 30.738281 22.984375 C 30.695312 23.613281 30.628906 24.234375 30.539062 24.851562 C 30.449219 25.46875 30.335938 26.082031 30.203125 26.683594 C 30.070312 27.285156 29.914062 27.878906 29.738281 28.460938 C 29.5625 29.042969 29.367188 29.609375 29.148438 30.164062 C 28.933594 30.71875 28.699219 31.261719 28.441406 31.785156 C 28.1875 32.308594 27.914062 32.8125 27.621094 33.300781 C 27.328125 33.785156 27.019531 34.253906 26.695312 34.699219 C 26.371094 35.144531 26.03125 35.566406 25.675781 35.964844 C 25.320312 36.363281 24.953125 36.738281 24.570312 37.089844 C 24.1875 37.4375 23.792969 37.761719 23.386719 38.058594 C 22.980469 38.355469 22.566406 38.625 22.140625 38.867188 C 21.71875 39.105469 21.285156 39.320312 20.84375 39.5 C 20.40625 39.683594 19.960938 39.835938 19.507812 39.960938 C 19.058594 40.082031 18.605469 40.175781 18.148438 40.238281 C 17.6875 40.296875 17.230469 40.328125 16.769531 40.328125 C 16.3125 40.328125 15.851562 40.296875 15.394531 40.238281 C 14.9375 40.175781 14.484375 40.082031 14.03125 39.960938 C 13.582031 39.835938 13.136719 39.683594 12.695312 39.5 C 12.257812 39.320312 11.824219 39.105469 11.398438 38.867188 C 10.972656 38.625 10.558594 38.355469 10.152344 38.058594 C 9.75 37.761719 9.355469 37.4375 8.972656 37.089844 C 8.589844 36.738281 8.222656 36.363281 7.867188 35.964844 C 7.511719 35.566406 7.171875 35.144531 6.84375 34.699219 C 6.519531 34.253906 6.210938 33.785156 5.921875 33.300781 C 5.628906 32.8125 5.355469 32.308594 5.101562 31.785156 C 4.84375 31.261719 4.609375 30.71875 4.390625 30.164062 C 4.175781 29.609375 3.980469 29.042969 3.800781 28.460938 C 3.625 27.878906 3.472656 27.285156 3.339844 26.683594 C 3.207031 26.082031 3.09375 25.46875 3.003906 24.851562 C 2.914062 24.234375 2.847656 23.613281 2.800781 22.984375 C 2.757812 22.359375 2.734375 21.730469 2.734375 21.101562 C 2.734375 20.472656 2.757812 19.84375 2.800781 19.214844 C 2.847656 18.589844 2.914062 17.96875 3.003906 17.351562 C 3.09375 16.734375 3.207031 16.121094 3.339844 15.519531 C 3.472656 14.917969 3.625 14.324219 3.800781 13.742188 C 3.980469 13.160156 4.175781 12.59375 4.390625 12.039062 C 4.609375 11.480469 4.84375 10.941406 5.101562 10.417969 C 5.355469 9.894531 5.628906 9.390625 5.921875 8.902344 C 6.210938 8.417969 6.519531 7.949219 6.84375 7.503906 C 7.171875 7.058594 7.511719 6.636719 7.867188 6.238281 C 8.222656 5.839844 8.589844 5.464844 8.972656 5.113281 C 9.355469 4.765625 9.75 4.441406 10.152344 4.144531 C 10.558594 3.847656 10.972656 3.578125 11.398438 3.335938 C 11.824219 3.097656 12.257812 2.882812 12.695312 2.703125 C 13.136719 2.519531 13.582031 2.367188 14.03125 2.242188 C 14.484375 2.121094 14.9375 2.027344 15.394531 1.964844 C 15.851562 1.90625 16.3125 1.875 16.769531 1.875 C 17.230469 1.875 17.6875 1.90625 18.148438 1.964844 C 18.605469 2.027344 19.058594 2.121094 19.507812 2.242188 C 19.960938 2.367188 20.40625 2.519531 20.84375 2.703125 C 21.285156 2.882812 21.71875 3.097656 22.140625 3.335938 C 22.566406 3.578125 22.980469 3.847656 23.386719 4.144531 C 23.792969 4.441406 24.1875 4.765625 24.570312 5.113281 C 24.953125 5.464844 25.320312 5.839844 25.675781 6.238281 C 26.03125 6.636719 26.371094 7.058594 26.695312 7.503906 C 27.019531 7.949219 27.328125 8.417969 27.621094 8.902344 C 27.914062 9.390625 28.1875 9.894531 28.441406 10.417969 C 28.699219 10.941406 28.933594 11.480469 29.148438 12.039062 C 29.367188 12.59375 29.5625 13.160156 29.738281 13.742188 C 29.914062 14.324219 30.070312 14.917969 30.203125 15.519531 C 30.335938 16.121094 30.449219 16.734375 30.539062 17.351562 C 30.628906 17.96875 30.695312 18.589844 30.738281 19.214844 C 30.785156 19.84375 30.808594 20.472656 30.808594 21.101562 Z M 30.808594 21.101562 " fill-opacity="1" fill-rule="nonzero"/><path fill="#e99d2c" d="M 16.769531 41.109375 C 8.710938 41.109375 2.214844 32.015625 2.214844 21.101562 C 2.214844 10.1875 8.710938 1.09375 16.769531 1.09375 C 24.828125 1.09375 31.328125 10.1875 31.328125 21.101562 C 31.328125 32.015625 24.828125 41.109375 16.769531 41.109375 Z M 16.769531 2.394531 C 9.492188 2.394531 3.515625 10.707031 3.515625 21.101562 C 3.515625 31.496094 9.492188 39.808594 16.769531 39.808594 C 24.050781 39.808594 30.027344 31.496094 30.027344 21.101562 C 30.027344 10.707031 24.050781 2.394531 16.769531 2.394531 Z M 16.769531 2.394531 " fill-opacity="1" fill-rule="nonzero"/></g></g></g><path fill="#ffff85" d="M 83.722656 193.476562 C 83.722656 193.996094 84.761719 193.734375 84.761719 193.214844 C 88.660156 173.988281 73.324219 165.152344 68.644531 163.59375 C 60.585938 160.996094 55.128906 166.714844 61.886719 168.53125 C 75.925781 171.910156 83.203125 181.003906 83.722656 193.476562 Z M 83.722656 193.476562 " fill-opacity="1" fill-rule="nonzero"/><path fill="#ffff85" d="M 63.1875 135.53125 C 63.1875 136.054688 63.964844 135.792969 63.964844 135.273438 C 66.824219 120.980469 55.648438 114.488281 52.007812 113.445312 C 46.03125 111.628906 42.132812 115.785156 47.070312 117.085938 C 57.207031 119.421875 62.667969 126.4375 63.1875 135.53125 Z M 63.1875 135.53125 " fill-opacity="1" fill-rule="nonzero"/><path fill="#ffff85" d="M 53.828125 93.179688 C 53.828125 93.441406 54.347656 93.441406 54.347656 92.921875 C 56.167969 84.085938 49.148438 79.929688 46.8125 79.148438 C 43.171875 77.851562 40.570312 80.707031 43.691406 81.488281 C 50.191406 83.304688 53.570312 87.464844 53.828125 93.179688 Z M 53.828125 93.179688 " fill-opacity="1" fill-rule="nonzero"/><path fill="#ffba08" d="M 67.085938 218.421875 C 52.53125 215.820312 44.472656 208.804688 42.390625 198.152344 C 42.390625 197.632812 41.351562 197.894531 41.09375 198.414062 C 39.011719 214.523438 50.191406 221.277344 60.585938 225.175781 C 68.644531 228.035156 74.105469 219.460938 67.085938 218.421875 Z M 67.085938 218.421875 " fill-opacity="0.66" fill-rule="nonzero"/><g clip-path="url(#fb776582cd)"><g mask="url(#30de7c8640)"><g transform="matrix(1, 0, 0, 1, 14, 218)"><g clip-path="url(#2aad4d0dcd)"><path fill="#fff157" d="M 2.65625 79.148438 C -4.101562 118.386719 10.714844 149.566406 40.867188 149.566406 C 71.023438 149.566406 85.839844 132.675781 86.359375 76.292969 C 86.617188 36.539062 101.953125 3.019531 71.28125 3.019531 C 34.890625 3.019531 10.714844 32.121094 2.65625 79.148438 Z M 2.65625 79.148438 " fill-opacity="1" fill-rule="nonzero"/><g clip-path="url(#ec9642fc59)"><path fill="#e99d2c" d="M 40.867188 150.34375 C 29.429688 150.34375 19.8125 145.925781 12.535156 137.351562 C 1.617188 124.363281 -2.28125 103.054688 1.878906 79.148438 C 10.457031 30.5625 35.671875 2.5 71.28125 2.5 C 78.300781 2.5 83.238281 4.316406 86.359375 7.695312 C 92.855469 14.972656 91.296875 28.480469 89.21875 45.890625 C 88.179688 54.984375 86.878906 65.640625 86.878906 76.292969 C 86.617188 129.558594 73.621094 150.34375 40.867188 150.34375 Z M 71.28125 3.796875 C 36.191406 3.796875 11.496094 31.339844 3.175781 79.410156 C -0.980469 103.054688 2.917969 123.839844 13.574219 136.574219 C 20.332031 144.628906 29.953125 149.046875 40.867188 149.046875 C 67.382812 149.046875 85.058594 136.574219 85.578125 76.292969 C 85.578125 65.378906 86.878906 54.984375 87.917969 45.890625 C 89.996094 29.003906 91.558594 15.492188 85.320312 8.734375 C 82.71875 5.355469 78.039062 3.796875 71.28125 3.796875 Z M 71.28125 3.796875 " fill-opacity="1" fill-rule="nonzero"/></g></g></g></g></g><path fill="#ffff85" d="M 92.820312 263.632812 C 92.820312 264.152344 93.601562 264.152344 93.859375 263.632812 C 101.136719 248.5625 90.480469 237.648438 86.839844 235.308594 C 80.601562 231.410156 74.882812 235.050781 80.082031 237.90625 C 90.742188 243.625 94.898438 252.976562 92.820312 263.632812 Z M 92.820312 263.632812 " fill-opacity="1" fill-rule="nonzero"/><path fill="#ffba08" d="M 44.992188 356.132812 C 31.734375 349.898438 23.675781 332.226562 20.035156 316.636719 C 19.777344 315.859375 18.996094 316.117188 18.996094 316.898438 C 20.296875 340.28125 31.214844 351.976562 41.09375 359.511719 C 48.371094 364.96875 51.230469 359.25 44.992188 356.132812 Z M 44.992188 356.132812 " fill-opacity="0.66" fill-rule="nonzero"/><path fill="#ffff85" d="M 45.769531 326.25 C 48.890625 339.761719 64.226562 248.042969 58.507812 262.59375 C 52.789062 277.402344 43.953125 317.9375 45.769531 326.25 Z M 45.769531 326.25 " fill-opacity="1" fill-rule="nonzero"/></svg>